<svg xmlns="http://www.w3.org/2000/svg" width="60.75" height="81" viewBox="0 0 60.75 81">
  <path id="Icon_awesome-award" data-name="Icon awesome-award" d="M15.365,57.369c-1.375-1.375-.658-.987-3.974-1.875a11.414,11.414,0,0,1-4.023-2.107L.19,70.985A2.532,2.532,0,0,0,2.631,74.47l8.336-.318L16.7,80.208a2.531,2.531,0,0,0,4.181-.785l8.234-20.19a11.353,11.353,0,0,1-13.751-1.865ZM60.559,70.985l-7.178-17.6a11.388,11.388,0,0,1-4.023,2.107c-3.333.892-2.6.5-3.974,1.875a11.355,11.355,0,0,1-13.752,1.865l8.234,20.19a2.531,2.531,0,0,0,4.181.785l5.735-6.056,8.336.318a2.532,2.532,0,0,0,2.441-3.485Zm-18.952-17.2c2.417-2.46,2.694-2.248,6.137-3.186a6.429,6.429,0,0,0,4.5-4.585c1.183-4.493.876-3.95,4.105-7.238A6.563,6.563,0,0,0,58,32.519c-1.182-4.49-1.183-3.863,0-8.358A6.563,6.563,0,0,0,56.353,17.9c-3.229-3.287-2.922-2.746-4.105-7.238a6.429,6.429,0,0,0-4.5-4.585c-4.411-1.2-3.879-.889-7.111-4.178A6.3,6.3,0,0,0,34.48.221c-4.409,1.2-3.794,1.2-8.211,0A6.291,6.291,0,0,0,20.117,1.9c-3.229,3.287-2.7,2.974-7.11,4.178a6.429,6.429,0,0,0-4.5,4.585C7.322,15.153,7.627,14.612,4.4,17.9A6.559,6.559,0,0,0,2.75,24.161c1.182,4.487,1.183,3.86,0,8.356A6.567,6.567,0,0,0,4.4,38.78C7.627,42.068,7.32,41.525,8.5,46.018a6.429,6.429,0,0,0,4.5,4.585c3.541.965,3.8.813,6.135,3.186a6.287,6.287,0,0,0,7.869.921,6.277,6.277,0,0,1,6.728,0A6.285,6.285,0,0,0,41.607,53.789ZM15.45,27.838a14.927,14.927,0,1,1,14.925,15.19A15.06,15.06,0,0,1,15.45,27.838Z" transform="translate(0 0.001)" fill="#243467"/>
</svg>
