<svg xmlns="http://www.w3.org/2000/svg" width="334" height="146.584" viewBox="0 0 334 146.584">
  <g id="Group_67" data-name="Group 67" transform="translate(-119.977 -114.394)">
    <g id="Group_65" data-name="Group 65" transform="translate(119.977 114.394)">
      <g id="Group_47" data-name="Group 47" transform="translate(13.626 10.56)">
        <path id="Path_215" data-name="Path 215" d="M183.326,257.882c-29.668,0-53.718-33.766-53.718-75.416,0-24.839,8.554-46.866,21.75-60.608-12.367,13.5-20.332,34.57-20.332,58.265,0,40.746,23.527,73.778,52.549,73.778Z" transform="translate(-129.608 -121.858)" fill="#c59b27"/>
      </g>
      <g id="Group_48" data-name="Group 48" transform="translate(266.398 10.56)">
        <path id="Path_216" data-name="Path 216" d="M295.087,257.882c29.666,0,53.715-33.766,53.715-75.416,0-24.839-8.554-46.866-21.75-60.608,12.367,13.5,20.332,34.57,20.332,58.265,0,40.746-23.524,73.778-52.547,73.778Z" transform="translate(-294.838 -121.858)" fill="#c59b27"/>
      </g>
      <g id="Group_56" data-name="Group 56">
        <g id="Group_49" data-name="Group 49" transform="translate(26 88.431)">
          <path id="Path_217" data-name="Path 217" d="M141.426,209.356s-7.794-17.758,1.447-32.459C142.873,176.9,151.843,193.37,141.426,209.356Z" transform="translate(-138.354 -176.897)" fill="#c59b27"/>
        </g>
        <path id="Path_218" data-name="Path 218" d="M145.468,205.661s-14.622,3.679-20.979-13.778C124.489,191.884,138.69,186.2,145.468,205.661Z" transform="translate(-118.105 -82.57)" fill="#c59b27"/>
        <path id="Path_219" data-name="Path 219" d="M138.233,192.347s-12.722,3.2-18.256-11.986C119.977,180.36,132.336,175.413,138.233,192.347Z" transform="translate(-119.977 -87.309)" fill="#c59b27"/>
        <path id="Path_220" data-name="Path 220" d="M133.963,183.573s-12.467-4.8-12.808-21.851C121.155,161.722,133.828,164.721,133.963,183.573Z" transform="translate(-119.488 -94.761)" fill="#c59b27"/>
        <path id="Path_221" data-name="Path 221" d="M133.183,168.127s-10.771-5.986-9.883-21.22C123.3,146.907,134.374,151.32,133.183,168.127Z" transform="translate(-118.62 -100.907)" fill="#c59b27"/>
        <path id="Path_222" data-name="Path 222" d="M131.785,156.78s-7.289-12.643-1.183-25.3A25.708,25.708,0,0,1,131.785,156.78Z" transform="translate(-116.581 -107.306)" fill="#c59b27"/>
        <path id="Path_223" data-name="Path 223" d="M137.113,142.523s-5.979-10.375-.968-20.763A21.09,21.09,0,0,1,137.113,142.523Z" transform="translate(-114.1 -111.339)" fill="#c59b27"/>
        <path id="Path_224" data-name="Path 224" d="M139.7,128.251s.18-10.847,7.176-13.588C146.873,114.663,147.466,125.417,139.7,128.251Z" transform="translate(-111.797 -114.283)" fill="#c59b27"/>
        <g id="Group_50" data-name="Group 50" transform="translate(18.506 74.114)">
          <path id="Path_225" data-name="Path 225" d="M133.644,194.353s-3.6-18.086,7.006-27.575C140.65,166.778,145.492,184.165,133.644,194.353Z" transform="translate(-133.057 -166.778)" fill="#c59b27"/>
        </g>
        <g id="Group_51" data-name="Group 51" transform="translate(15.618 57.207)">
          <path id="Path_226" data-name="Path 226" d="M131.016,176.321s-.156-16.726,10.518-21.493C141.534,154.828,142.871,171.35,131.016,176.321Z" transform="translate(-131.016 -154.828)" fill="#c59b27"/>
        </g>
        <g id="Group_52" data-name="Group 52" transform="translate(14.568 42.682)">
          <path id="Path_227" data-name="Path 227" d="M130.274,159.474s3.155-14.839,13.522-14.912C143.8,144.562,141.73,159.677,130.274,159.474Z" transform="translate(-130.274 -144.562)" fill="#c59b27"/>
        </g>
        <g id="Group_53" data-name="Group 53" transform="translate(19.907 27.47)">
          <path id="Path_228" data-name="Path 228" d="M134.047,145.621s4.485-13.568,14.4-11.62C148.45,134,144.978,148.05,134.047,145.621Z" transform="translate(-134.047 -133.81)" fill="#c59b27"/>
        </g>
        <g id="Group_54" data-name="Group 54" transform="translate(27.238 12.648)">
          <path id="Path_229" data-name="Path 229" d="M139.229,130.8s5.6-10.655,13.953-6.5C153.182,124.295,148.4,135.612,139.229,130.8Z" transform="translate(-139.229 -123.334)" fill="#c59b27"/>
        </g>
        <g id="Group_55" data-name="Group 55" transform="translate(36.249)">
          <path id="Path_230" data-name="Path 230" d="M145.6,121.859s5.6-10.656,13.952-6.5C159.55,115.355,154.769,126.673,145.6,121.859Z" transform="translate(-145.598 -114.394)" fill="#c59b27"/>
        </g>
      </g>
      <g id="Group_64" data-name="Group 64" transform="translate(283.801)">
        <g id="Group_57" data-name="Group 57" transform="translate(16.09 88.431)">
          <path id="Path_231" data-name="Path 231" d="M323.547,209.356s7.8-17.758-1.446-32.459C322.1,176.9,313.131,193.37,323.547,209.356Z" transform="translate(-318.51 -176.897)" fill="#c59b27"/>
        </g>
        <path id="Path_232" data-name="Path 232" d="M323.278,205.661s14.624,3.679,20.98-13.778C344.258,191.884,330.055,186.2,323.278,205.661Z" transform="translate(-300.443 -82.57)" fill="#c59b27"/>
        <path id="Path_233" data-name="Path 233" d="M329.717,192.347s12.722,3.2,18.254-11.986C347.971,180.36,335.614,175.413,329.717,192.347Z" transform="translate(-297.772 -87.309)" fill="#c59b27"/>
        <path id="Path_234" data-name="Path 234" d="M332.389,183.573s12.465-4.8,12.8-21.851C345.193,161.722,332.522,164.721,332.389,183.573Z" transform="translate(-296.663 -94.761)" fill="#c59b27"/>
        <path id="Path_235" data-name="Path 235" d="M332.352,168.127s10.77-5.986,9.881-21.22C342.234,146.907,331.158,151.32,332.352,168.127Z" transform="translate(-296.716 -100.907)" fill="#c59b27"/>
        <path id="Path_236" data-name="Path 236" d="M332.693,156.78s7.289-12.643,1.183-25.3A25.7,25.7,0,0,0,332.693,156.78Z" transform="translate(-297.697 -107.306)" fill="#c59b27"/>
        <path id="Path_237" data-name="Path 237" d="M327.026,142.523s5.98-10.375.971-20.763A21.1,21.1,0,0,0,327.026,142.523Z" transform="translate(-299.84 -111.339)" fill="#c59b27"/>
        <path id="Path_238" data-name="Path 238" d="M325.005,128.251s-.18-10.847-7.176-13.588C317.829,114.663,317.238,125.417,325.005,128.251Z" transform="translate(-302.707 -114.283)" fill="#c59b27"/>
        <g id="Group_58" data-name="Group 58" transform="translate(23.119 74.114)">
          <path id="Path_239" data-name="Path 239" d="M331.467,194.353s3.6-18.086-7.009-27.575C324.458,166.778,319.615,184.165,331.467,194.353Z" transform="translate(-323.479 -166.778)" fill="#c59b27"/>
        </g>
        <g id="Group_59" data-name="Group 59" transform="translate(24.015 57.207)">
          <path id="Path_240" data-name="Path 240" d="M334.682,176.321s.15-16.726-10.525-21.493C324.157,154.828,322.822,171.35,334.682,176.321Z" transform="translate(-324.112 -154.828)" fill="#c59b27"/>
        </g>
        <g id="Group_60" data-name="Group 60" transform="translate(22.11 42.682)">
          <path id="Path_241" data-name="Path 241" d="M336.284,159.474s-3.149-14.839-13.519-14.912C322.765,144.562,324.831,159.677,336.284,159.474Z" transform="translate(-322.765 -144.562)" fill="#c59b27"/>
        </g>
        <g id="Group_61" data-name="Group 61" transform="translate(15.887 27.47)">
          <path id="Path_242" data-name="Path 242" d="M332.773,145.621s-4.485-13.568-14.406-11.62C318.367,134,321.84,148.05,332.773,145.621Z" transform="translate(-318.367 -133.81)" fill="#c59b27"/>
        </g>
        <g id="Group_62" data-name="Group 62" transform="translate(9.008 12.648)">
          <path id="Path_243" data-name="Path 243" d="M327.455,130.8s-5.6-10.655-13.95-6.5C313.505,124.295,318.284,135.612,327.455,130.8Z" transform="translate(-313.505 -123.334)" fill="#c59b27"/>
        </g>
        <g id="Group_63" data-name="Group 63">
          <path id="Path_244" data-name="Path 244" d="M321.09,121.859s-5.6-10.656-13.952-6.5C307.138,115.355,311.919,126.673,321.09,121.859Z" transform="translate(-307.138 -114.394)" fill="#c59b27"/>
        </g>
      </g>
    </g>
  </g>
</svg>
