<svg xmlns="http://www.w3.org/2000/svg" width="74.436" height="44.678" viewBox="0 0 74.436 44.678">
  <path id="Icon_awesome-handshake" data-name="Icon awesome-handshake" d="M50.559,4.5H40.568a3.72,3.72,0,0,0-2.512.977L26.623,15.945c-.012.012-.023.035-.035.047a4.627,4.627,0,0,0-.244,6.513,4.851,4.851,0,0,0,6.525.314c.012-.012.035-.012.047-.023l9.293-8.514a1.86,1.86,0,0,1,2.512,2.745l-3.036,2.78L58.619,33.553a8.379,8.379,0,0,1,.919.9V11.944l-6.35-6.35A3.7,3.7,0,0,0,50.559,4.5Zm12.712,7.467V38.008a3.718,3.718,0,0,0,3.722,3.722h7.444V11.967Zm5.583,26.041a1.861,1.861,0,1,1,1.861-1.861A1.866,1.866,0,0,1,68.854,38.008ZM0,41.718H7.444A3.718,3.718,0,0,0,11.165,38V11.967H0Zm5.583-7.432a1.861,1.861,0,1,1-1.861,1.861A1.866,1.866,0,0,1,5.583,34.286Zm50.7,2.163-17.365-14.1-3.489,3.2A8.372,8.372,0,0,1,24.11,13.211L33.624,4.5H23.878a3.715,3.715,0,0,0-2.629,1.093l-6.362,6.35V37.985h2.128L27.541,47.51a7.442,7.442,0,0,0,10.468-1.082l.023-.023,2.082,1.8A4.322,4.322,0,0,0,46.2,47.58l3.652-4.489.628.512a3.716,3.716,0,0,0,5.234-.547l1.1-1.361a3.729,3.729,0,0,0-.535-5.245Z" transform="translate(0 -4.5)" fill="#243467"/>
</svg>
