<svg xmlns="http://www.w3.org/2000/svg" width="85.923" height="67.009" viewBox="0 0 85.923 67.009">
  <path id="Icon_map-lawyer" data-name="Icon map-lawyer" d="M.507,41.419a11.1,11.1,0,0,0,22,0ZM60.459,63.757a1.718,1.718,0,0,1-1.715,1.724H26.684a1.715,1.715,0,1,1,0-3.43H58.742A1.711,1.711,0,0,1,60.459,63.757Zm-35.306,2.6h35.12V71.32H25.153Zm38.258-24.94a11.091,11.091,0,0,0,22,0ZM84.8,37.967l-9.01-12.411h4.817a2.138,2.138,0,0,0,0-4.276H55.1a12.636,12.636,0,0,0-9.682-8.132v-6.7a2.133,2.133,0,0,0-2.139-2.141l-.2.022-.2-.022a2.131,2.131,0,0,0-2.136,2.141v6.693a12.627,12.627,0,0,0-9.678,8.132H5.54a2.138,2.138,0,0,0,0,4.276h4.6L1.126,37.963H0v2.292H23.024V37.963H21.893L12.885,25.556H33.8a9.058,9.058,0,0,1,.125-1.416,2.02,2.02,0,0,0,.124-.658,9.135,9.135,0,0,1,6.693-6.759V40.261H40.65c-.184,8.853-4.4,16.575-10.644,20.914H56.151C49.9,56.835,45.692,49.114,45.5,40.261h-.082V16.723a9.134,9.134,0,0,1,6.692,6.759,2.172,2.172,0,0,0,.129.658,9.526,9.526,0,0,1,.112,1.416H73.041L64.03,37.967H62.906v2.292H85.923V37.967Zm-74.21,0H3.4l7.192-9.907v9.907Zm1.84,0V28.06l7.192,9.907H12.435Zm61.06,0H66.3l7.2-9.907Zm1.832,0V28.06l7.2,9.907ZM13.646,18.294a2.135,2.135,0,1,1-2.131-2.141,2.136,2.136,0,0,1,2.131,2.141Zm62.9-.113a2.136,2.136,0,1,1-1.042-1.921A2.124,2.124,0,0,1,76.549,18.18Z" transform="translate(0 -4.311)" fill="#243467"/>
</svg>
