<svg xmlns="http://www.w3.org/2000/svg" width="26.209" height="26.209" viewBox="0 0 26.209 26.209">
  <path id="Icon_awesome-phone-alt" data-name="Icon awesome-phone-alt" d="M25.461,18.521l-5.733-2.457a1.229,1.229,0,0,0-1.433.353l-2.539,3.1a18.974,18.974,0,0,1-9.07-9.07l3.1-2.539a1.225,1.225,0,0,0,.353-1.433L7.684.743A1.237,1.237,0,0,0,6.276.031L.952,1.26A1.229,1.229,0,0,0,0,2.457,23.749,23.749,0,0,0,23.752,26.209a1.229,1.229,0,0,0,1.2-.952l1.229-5.324a1.243,1.243,0,0,0-.717-1.413Z" transform="translate(0 0)" fill="#fff"/>
</svg>
