<?xml version="1.0" encoding="UTF-8"?>
<svg xmlns="http://www.w3.org/2000/svg" xmlns:xlink="http://www.w3.org/1999/xlink" width="80pt" height="80pt" viewBox="0 0 80 80" version="1.1">
<g id="surface514632">
<path style=" stroke:none;fill-rule:nonzero;fill:rgb(77.254902%,60.784314%,15.294118%);fill-opacity:1;" d="M 38.75 2.5 C 18.761719 2.5 2.5 18.765625 2.5 38.75 C 2.5 58.734375 18.761719 75 38.75 75 C 58.742188 75 75 58.734375 75 38.75 C 75 18.765625 58.742188 2.5 38.75 2.5 Z M 38.75 5 C 44.730469 5 50.355469 6.570312 55.234375 9.316406 L 53.726562 10.429688 C 52.734375 11.160156 52.207031 11.191406 52.128906 11.121094 C 52.0625 11.0625 51.953125 10.867188 51.867188 10.71875 L 51.738281 10.496094 C 50.117188 7.761719 46.5 6.644531 43.671875 7.988281 C 43.332031 8.152344 43.078125 8.464844 42.992188 8.835938 C 42.910156 9.207031 43 9.597656 43.238281 9.902344 C 44.394531 11.34375 45.542969 12.789062 46.695312 14.234375 C 46.230469 14.628906 45.835938 15.136719 45.5625 15.730469 C 45.421875 16.03125 45.3125 16.34375 45.234375 16.65625 C 44.855469 16.433594 44.414062 16.265625 43.902344 16.226562 C 42.453125 16.101562 41.5 17.09375 40.738281 17.875 C 40.386719 18.238281 40.058594 18.582031 39.742188 18.765625 C 39.253906 19.042969 39.007812 19.613281 39.152344 20.160156 C 39.292969 20.707031 39.785156 21.089844 40.347656 21.09375 C 40.972656 21.101562 41.675781 21.113281 42.109375 21.382812 C 42.324219 21.519531 42.433594 21.816406 42.414062 21.890625 C 42.191406 22.265625 42.179688 22.722656 42.382812 23.109375 C 42.582031 23.496094 42.96875 23.746094 43.402344 23.773438 C 43.824219 23.804688 44.121094 23.886719 44.277344 24.019531 C 44.316406 24.046875 44.34375 24.097656 44.375 24.109375 C 44.246094 24.148438 43.929688 24.1875 43.378906 24.082031 C 42.132812 23.855469 40.585938 23.570312 39.144531 24.257812 C 38.683594 24.480469 38.398438 24.964844 38.4375 25.484375 C 38.503906 26.394531 38.53125 27.3125 38.515625 28.226562 L 38.144531 28.171875 C 37.597656 28.09375 37.074219 28.375 36.835938 28.867188 C 36.386719 29.8125 36.179688 31.347656 37.789062 33.296875 C 38.054688 33.617188 38.277344 33.949219 38.496094 34.277344 C 38.691406 34.570312 38.882812 34.863281 39.105469 35.15625 C 39.171875 35.242188 39.210938 35.367188 39.222656 35.464844 C 38.960938 35.472656 38.574219 35.429688 38.390625 35.355469 C 38.167969 35.101562 37.941406 34.90625 37.734375 34.726562 C 37.539062 34.558594 37.375 34.417969 37.277344 34.277344 C 37.152344 34.105469 36.996094 33.726562 36.859375 33.386719 C 36.644531 32.855469 36.425781 32.3125 36.09375 31.871094 C 36.117188 31.820312 36.136719 31.777344 36.15625 31.722656 C 36.230469 31.546875 36.257812 31.363281 36.25 31.171875 C 36.226562 30.824219 36.21875 30.320312 36.234375 30.195312 C 36.253906 30.105469 36.296875 30.007812 36.332031 29.902344 C 36.53125 29.355469 36.859375 28.4375 36.25 27.65625 C 35.027344 26.09375 33.675781 24.617188 32.234375 23.265625 C 31.9375 22.988281 31.519531 22.867188 31.117188 22.960938 C 30.722656 23.042969 30.390625 23.320312 30.230469 23.695312 C 30.011719 24.214844 29.632812 24.660156 29.175781 24.9375 C 28.238281 25.5 28.421875 26.660156 28.675781 28.265625 C 28.714844 28.496094 28.746094 28.683594 28.753906 28.6875 C 28.742188 28.984375 28.632812 29.125 28.335938 29.492188 C 28.203125 29.648438 28.0625 29.824219 27.925781 30.023438 C 27.628906 29.859375 27.398438 29.726562 27.214844 29.613281 C 27.308594 29.488281 27.398438 29.355469 27.476562 29.222656 C 28.300781 27.71875 27.371094 25.972656 26.035156 25.019531 C 25.855469 24.898438 25.675781 24.777344 25.488281 24.652344 C 24.953125 24.3125 24.449219 23.984375 24.316406 23.609375 C 24.289062 23.535156 24.269531 23.457031 24.25 23.382812 C 24.136719 22.984375 23.96875 22.378906 23.398438 21.953125 C 22.949219 21.613281 22.457031 21.558594 22.164062 21.523438 C 20.507812 21.34375 15.734375 22.082031 14.746094 23.167969 C 13.65625 24.375 13.628906 25.929688 13.597656 27.300781 C 13.578125 28.292969 13.554688 29.230469 13.144531 29.789062 C 12.867188 30.167969 12.34375 30.460938 11.792969 30.777344 C 10.855469 31.308594 9.683594 31.976562 9.257812 33.371094 C 8.972656 34.277344 9.136719 35.128906 9.277344 35.878906 C 9.375 36.394531 9.46875 36.894531 9.355469 37.203125 C 9.242188 37.515625 8.859375 37.796875 8.414062 38.128906 C 7.929688 38.492188 7.382812 38.902344 6.964844 39.507812 C 6.226562 40.566406 6.144531 41.8125 6.164062 42.996094 L 6.171875 43.226562 C 6.183594 44.007812 6.195312 44.746094 5.957031 45.296875 C 5.894531 45.441406 5.800781 45.546875 5.707031 45.636719 C 5.246094 43.414062 5 41.109375 5 38.75 C 5 20.140625 20.140625 5 38.75 5 Z M 46.464844 9.921875 C 47.707031 9.996094 48.933594 10.671875 49.589844 11.777344 L 49.691406 11.953125 C 49.871094 12.265625 50.09375 12.65625 50.46875 12.992188 C 51.148438 13.59375 52.664062 14.328125 55.214844 12.441406 L 57.128906 11.019531 C 57.261719 10.921875 57.367188 10.800781 57.445312 10.667969 C 59.492188 12.035156 61.371094 13.617188 63.070312 15.386719 C 63.132812 15.464844 63.199219 15.535156 63.28125 15.605469 C 68.988281 21.648438 72.5 29.792969 72.5 38.75 C 72.5 57.359375 57.359375 72.5 38.75 72.5 C 23.402344 72.5 10.417969 62.195312 6.335938 48.144531 C 6.351562 48.144531 6.363281 48.140625 6.371094 48.140625 C 7.183594 47.820312 7.878906 47.132812 8.246094 46.304688 C 8.707031 45.242188 8.6875 44.144531 8.660156 43.171875 L 8.660156 42.949219 C 8.648438 42.183594 8.675781 41.40625 9.007812 40.933594 C 9.195312 40.660156 9.535156 40.40625 9.902344 40.136719 C 10.535156 39.65625 11.332031 39.066406 11.699219 38.050781 C 12.046875 37.097656 11.871094 36.160156 11.726562 35.410156 C 11.636719 34.902344 11.542969 34.417969 11.640625 34.101562 C 11.773438 33.675781 12.25 33.386719 13.027344 32.949219 C 13.746094 32.539062 14.554688 32.074219 15.144531 31.273438 C 16.035156 30.074219 16.070312 28.628906 16.09375 27.347656 C 16.117188 26.371094 16.136719 25.449219 16.539062 24.921875 C 17.234375 24.566406 20.410156 23.867188 21.820312 24 C 21.824219 24.011719 21.832031 24.027344 21.835938 24.042969 C 21.875 24.179688 21.914062 24.316406 21.957031 24.441406 C 22.378906 25.613281 23.34375 26.246094 24.121094 26.753906 C 24.28125 26.851562 24.4375 26.953125 24.589844 27.058594 C 25.121094 27.4375 25.328125 27.933594 25.277344 28.023438 C 25.230469 28.109375 25.15625 28.199219 25.082031 28.285156 C 24.773438 28.679688 24.125 29.507812 24.535156 30.542969 C 24.714844 30.984375 24.800781 31.191406 27.992188 32.925781 C 28.367188 33.128906 28.828125 33.125 29.199219 32.914062 C 29.574219 32.703125 29.8125 32.320312 29.839844 31.890625 C 29.851562 31.589844 29.957031 31.449219 30.257812 31.078125 C 30.652344 30.601562 31.191406 29.949219 31.25 28.8125 C 31.257812 28.613281 31.230469 28.414062 31.148438 27.875 C 31.101562 27.605469 31.019531 27.085938 30.980469 26.714844 C 31.199219 26.539062 31.40625 26.347656 31.597656 26.136719 C 32.457031 27.011719 33.269531 27.933594 34.042969 28.890625 C 34.019531 28.945312 34 29 33.984375 29.058594 C 33.882812 29.335938 33.796875 29.605469 33.765625 29.820312 C 33.714844 30.15625 33.71875 30.664062 33.734375 31.011719 C 33.726562 31.035156 33.714844 31.054688 33.707031 31.074219 C 33.269531 31.921875 33.367188 32.527344 34.0625 33.320312 C 34.203125 33.480469 34.398438 33.972656 34.546875 34.332031 C 34.742188 34.8125 34.945312 35.3125 35.234375 35.71875 C 35.507812 36.109375 35.835938 36.394531 36.097656 36.621094 C 36.25 36.753906 36.402344 36.875 36.527344 37.03125 C 37.351562 38.0625 39.613281 38.160156 40.542969 37.675781 C 41.113281 37.378906 41.519531 36.839844 41.664062 36.171875 C 41.855469 35.332031 41.640625 34.371094 41.109375 33.65625 C 40.914062 33.402344 40.742188 33.144531 40.574219 32.890625 C 40.308594 32.488281 40.039062 32.09375 39.714844 31.703125 C 39.511719 31.453125 39.296875 31.15625 39.160156 30.855469 L 39.527344 30.902344 C 39.871094 30.957031 40.21875 30.863281 40.488281 30.644531 C 40.761719 30.417969 40.933594 30.101562 40.957031 29.75 C 41.03125 28.621094 41.042969 27.476562 40.996094 26.332031 C 41.570312 26.308594 42.246094 26.421875 42.945312 26.546875 C 45.554688 27.03125 46.429688 25.730469 46.683594 25.152344 C 47.128906 24.140625 46.792969 22.867188 45.894531 22.109375 C 45.605469 21.863281 45.273438 21.675781 44.898438 21.542969 C 44.78125 20.613281 44.199219 19.742188 43.4375 19.261719 C 43.324219 19.1875 43.207031 19.128906 43.089844 19.070312 C 43.335938 18.859375 43.550781 18.730469 43.726562 18.71875 C 43.921875 18.734375 44.246094 18.980469 44.566406 19.21875 C 45.046875 19.582031 45.652344 20.035156 46.445312 20.179688 C 46.914062 20.261719 47.402344 20.078125 47.679688 19.6875 C 47.964844 19.300781 48.003906 18.789062 47.777344 18.363281 C 47.554688 17.9375 47.574219 17.339844 47.828125 16.792969 C 48.0625 16.289062 48.453125 15.933594 48.867188 15.84375 C 49.285156 15.757812 49.636719 15.453125 49.785156 15.042969 C 49.925781 14.636719 49.851562 14.183594 49.585938 13.847656 C 48.542969 12.539062 47.503906 11.230469 46.464844 9.921875 Z M 56.492188 13.320312 C 55.136719 13.289062 53.414062 13.902344 52.890625 14.316406 C 52.816406 14.371094 52.660156 14.441406 52.503906 14.507812 C 52.222656 14.628906 51.871094 14.785156 51.53125 15.058594 C 51.167969 15.355469 50.980469 15.820312 51.078125 16.285156 C 51.179688 16.738281 51.507812 17.09375 51.960938 17.210938 C 52.007812 17.246094 52.046875 17.363281 52.035156 17.402344 C 52.003906 17.480469 51.941406 17.554688 51.890625 17.625 C 51.746094 17.828125 51.558594 18.101562 51.449219 18.402344 C 51.25 18.808594 50.160156 20 49.78125 20.195312 C 49.410156 20.359375 49.136719 20.585938 48.945312 20.898438 C 48.6875 21.328125 48.695312 21.757812 48.707031 21.957031 L 48.753906 24.449219 C 48.296875 24.765625 48.09375 25.367188 48.300781 25.914062 C 48.476562 26.371094 48.847656 26.722656 49.316406 26.875 C 49.496094 26.933594 49.683594 26.957031 49.867188 26.957031 C 50.25 26.957031 50.632812 26.851562 50.957031 26.640625 C 51.121094 26.527344 51.273438 26.390625 51.425781 26.25 C 51.449219 26.226562 51.480469 26.203125 51.503906 26.171875 C 51.589844 26.183594 51.734375 26.203125 51.835938 26.214844 C 52.347656 26.296875 53.308594 26.449219 54.058594 25.699219 C 54.652344 25.097656 54.683594 24.339844 54.707031 23.84375 L 54.714844 23.617188 C 54.75 23.191406 54.96875 22.773438 55.390625 22.464844 C 55.640625 22.289062 56.050781 22.003906 56.28125 21.464844 C 56.308594 21.390625 56.390625 21.214844 56.503906 20.972656 C 58.101562 17.5625 58.726562 15.898438 58.75 15.023438 C 58.753906 14.789062 58.691406 14.554688 58.570312 14.355469 C 58.355469 13.996094 57.914062 13.53125 57.050781 13.375 C 56.875 13.339844 56.691406 13.324219 56.492188 13.320312 Z M 56 15.84375 C 55.746094 16.5625 55.234375 17.796875 54.242188 19.917969 C 54.152344 20.105469 54.078125 20.261719 54.027344 20.371094 C 54.003906 20.390625 53.972656 20.410156 53.945312 20.429688 L 53.808594 20.527344 C 52.90625 21.203125 52.308594 22.285156 52.222656 23.421875 L 52.207031 23.746094 L 52.207031 23.75 C 51.992188 23.714844 51.738281 23.671875 51.460938 23.671875 C 51.386719 23.671875 51.3125 23.675781 51.242188 23.6875 L 51.210938 22.246094 C 52.25 21.554688 53.546875 19.976562 53.789062 19.296875 C 53.804688 19.257812 53.882812 19.152344 53.9375 19.066406 C 54.074219 18.878906 54.199219 18.683594 54.300781 18.460938 C 54.605469 17.8125 54.613281 17.054688 54.335938 16.363281 C 54.351562 16.347656 54.367188 16.332031 54.378906 16.324219 C 54.679688 16.148438 55.425781 15.929688 56 15.84375 Z M 48.441406 27.40625 C 47.882812 27.417969 47.410156 27.792969 47.265625 28.304688 C 47.082031 28.382812 46.871094 28.457031 46.644531 28.535156 C 46.46875 28.59375 46.292969 28.65625 46.117188 28.722656 C 44.660156 29.28125 43.773438 30.304688 43.691406 31.519531 C 43.617188 32.496094 44.125 33.492188 45.015625 34.121094 C 45.683594 34.59375 46.425781 34.789062 47.015625 34.941406 C 47.195312 34.992188 47.371094 35.019531 47.539062 35.019531 C 47.839844 35.019531 48.113281 34.9375 48.359375 34.777344 C 48.855469 34.449219 48.980469 33.960938 49.042969 33.730469 C 49.0625 33.648438 49.117188 33.566406 49.175781 33.53125 C 49.238281 33.488281 49.3125 33.453125 49.378906 33.417969 C 49.597656 33.304688 49.898438 33.160156 50.171875 32.902344 C 50.832031 32.285156 51.40625 31.09375 50.394531 28.90625 C 49.933594 27.894531 49.28125 27.425781 48.441406 27.40625 Z M 48.359375 30.550781 C 48.46875 30.910156 48.453125 31.070312 48.460938 31.074219 C 48.402344 31.117188 48.332031 31.148438 48.261719 31.183594 C 48.097656 31.265625 47.929688 31.347656 47.773438 31.457031 C 47.445312 31.675781 47.167969 31.96875 46.953125 32.324219 C 46.761719 32.257812 46.59375 32.183594 46.460938 32.085938 C 46.269531 31.949219 46.171875 31.769531 46.175781 31.683594 C 46.191406 31.527344 46.515625 31.246094 47.011719 31.054688 C 47.160156 31 47.308594 30.945312 47.460938 30.898438 C 47.738281 30.800781 48.046875 30.691406 48.359375 30.550781 Z M 52.300781 33.140625 C 52.050781 33.140625 51.855469 33.183594 51.667969 33.265625 C 51.363281 33.402344 51.054688 33.726562 50.9375 34.042969 C 50.691406 34.683594 50.613281 35.726562 51.597656 37.046875 C 53.179688 39.175781 55.671875 40.449219 58.269531 40.464844 L 58.277344 40.464844 C 58.691406 40.464844 59.082031 40.253906 59.316406 39.90625 C 59.496094 39.632812 59.566406 39.300781 59.507812 38.984375 C 59.539062 38.929688 59.605469 38.847656 59.707031 38.726562 C 60.855469 37.347656 60.394531 36.3125 60.140625 35.925781 C 59.714844 35.28125 59.027344 35.113281 58.769531 35.042969 C 58.515625 34.976562 58.257812 34.921875 57.996094 34.871094 C 57.621094 34.800781 57.269531 34.726562 56.96875 34.613281 C 56.871094 34.578125 56.699219 34.511719 56.484375 34.421875 C 54.164062 33.492188 53.03125 33.125 52.300781 33.140625 Z M 54.160156 36.203125 C 54.5625 36.351562 55.023438 36.535156 55.546875 36.742188 C 55.800781 36.84375 55.992188 36.921875 56.097656 36.960938 C 56.585938 37.144531 57.054688 37.234375 57.503906 37.324219 C 57.539062 37.332031 57.578125 37.339844 57.613281 37.347656 C 57.503906 37.484375 57.382812 37.65625 57.269531 37.859375 C 56.113281 37.636719 55.015625 37.050781 54.160156 36.199219 Z M 47.839844 39.863281 C 45.269531 39.96875 40.199219 42.261719 39.394531 44.605469 L 39.320312 44.804688 C 39.300781 44.867188 39.277344 44.941406 39.253906 45.015625 C 37.742188 44.574219 36.394531 44.664062 35.351562 45.261719 C 32.972656 46.636719 33.117188 49.917969 33.167969 51.152344 C 33.203125 51.980469 33.265625 53.367188 34.203125 54.355469 C 34.46875 54.628906 34.769531 54.851562 35.039062 55.054688 C 35.140625 55.132812 35.277344 55.234375 35.390625 55.328125 C 35.175781 55.648438 34.863281 56.195312 35.035156 56.914062 C 35.113281 57.242188 35.394531 57.597656 35.683594 57.773438 C 36.566406 58.304688 39.992188 58.6875 41.449219 58.300781 C 41.585938 58.265625 41.714844 58.207031 41.835938 58.128906 C 42.953125 57.371094 45.011719 56.257812 45.898438 56.257812 C 45.910156 56.257812 45.917969 56.257812 45.929688 56.265625 C 47.140625 56.292969 48.4375 56.8125 49.898438 57.847656 L 50.332031 58.164062 C 50.855469 58.550781 51.398438 58.945312 52.03125 59.261719 C 52.929688 59.714844 53.921875 59.929688 54.921875 59.929688 C 56.796875 59.929688 58.683594 59.164062 59.941406 57.757812 C 60.433594 57.210938 60.738281 56.664062 60.875 56.097656 C 60.996094 55.582031 60.96875 55.097656 60.941406 54.707031 L 60.640625 49.910156 C 60.5625 48.621094 60.441406 46.667969 59.199219 45.269531 C 58.636719 44.632812 57.945312 44.230469 57.339844 43.867188 C 57.046875 43.703125 56.757812 43.53125 56.488281 43.335938 C 55.976562 42.953125 55.699219 42.425781 55.792969 42.207031 C 55.976562 41.78125 55.910156 41.285156 55.609375 40.921875 C 55.226562 40.445312 54.660156 40.160156 54.023438 40.117188 C 53.019531 40.046875 52.050781 40.609375 51.488281 41.148438 C 51.367188 41.265625 51.242188 41.390625 51.113281 41.523438 C 50.804688 41.839844 50.421875 42.234375 50.207031 42.246094 C 50.191406 42.246094 50.140625 42.25 50.046875 42.164062 C 49.820312 41.953125 49.644531 41.507812 49.632812 41.109375 C 49.617188 40.582031 49.273438 40.125 48.769531 39.960938 C 48.527344 39.882812 48.207031 39.847656 47.839844 39.863281 Z M 47.355469 42.390625 C 47.5625 43.023438 47.910156 43.589844 48.359375 44 C 48.921875 44.519531 49.609375 44.777344 50.332031 44.746094 C 51.527344 44.683594 52.324219 43.867188 52.910156 43.265625 C 53.011719 43.160156 53.117188 43.050781 53.222656 42.949219 C 53.257812 42.917969 53.292969 42.890625 53.320312 42.867188 C 53.515625 43.851562 54.203125 44.75 55.011719 45.347656 C 55.347656 45.59375 55.707031 45.8125 56.074219 46.019531 C 56.5625 46.3125 57.03125 46.585938 57.328125 46.929688 C 57.949219 47.628906 58.066406 48.765625 58.144531 50.066406 L 58.449219 54.863281 C 58.460938 55.105469 58.476562 55.359375 58.4375 55.515625 C 58.402344 55.667969 58.28125 55.859375 58.078125 56.089844 C 56.898438 57.40625 54.730469 57.820312 53.148438 57.027344 C 52.707031 56.800781 52.269531 56.484375 51.8125 56.148438 L 51.34375 55.804688 C 49.464844 54.472656 47.714844 53.804688 45.992188 53.761719 L 45.914062 53.761719 C 44.101562 53.761719 41.515625 55.34375 40.640625 55.917969 C 39.992188 56.019531 38.808594 55.941406 37.929688 55.816406 C 38.332031 54.378906 37.160156 53.515625 36.523438 53.046875 C 36.34375 52.910156 36.15625 52.777344 36.015625 52.632812 C 35.746094 52.34375 35.695312 51.691406 35.664062 51.046875 C 35.609375 49.757812 35.644531 47.980469 36.601562 47.425781 C 37.167969 47.101562 38.003906 47.246094 38.652344 47.441406 C 38.957031 47.535156 39.425781 47.675781 39.976562 47.550781 C 41.144531 47.285156 41.503906 46.183594 41.699219 45.589844 L 41.757812 45.421875 C 42.121094 44.367188 45.679688 42.738281 47.355469 42.394531 Z M 15.820312 43.378906 C 15.660156 43.355469 15.492188 43.363281 15.328125 43.414062 L 12.910156 44.058594 C 12.242188 44.238281 11.847656 44.921875 12.023438 45.585938 C 12.171875 46.148438 12.679688 46.519531 13.234375 46.519531 C 13.339844 46.519531 13.449219 46.5 13.554688 46.46875 L 15.972656 45.824219 C 16.636719 45.644531 17.035156 44.960938 16.855469 44.296875 C 16.722656 43.792969 16.304688 43.449219 15.820312 43.378906 Z M 17.929688 49.253906 C 17.769531 49.273438 17.609375 49.328125 17.460938 49.414062 L 15.292969 50.664062 C 14.691406 51.003906 14.488281 51.773438 14.835938 52.367188 C 15.070312 52.773438 15.484375 52.992188 15.917969 52.992188 C 16.128906 52.992188 16.347656 52.9375 16.542969 52.828125 L 18.710938 51.578125 C 19.308594 51.230469 19.511719 50.46875 19.164062 49.867188 C 18.90625 49.421875 18.410156 49.195312 17.929688 49.253906 Z M 21.953125 54.296875 C 21.636719 54.296875 21.320312 54.414062 21.074219 54.664062 L 19.300781 56.425781 C 18.820312 56.917969 18.820312 57.710938 19.300781 58.199219 C 19.546875 58.4375 19.867188 58.558594 20.191406 58.558594 C 20.507812 58.558594 20.824219 58.4375 21.074219 58.199219 L 22.835938 56.425781 C 23.324219 55.9375 23.324219 55.144531 22.835938 54.664062 C 22.59375 54.414062 22.277344 54.296875 21.953125 54.296875 Z M 27.160156 58.179688 C 26.675781 58.117188 26.183594 58.34375 25.921875 58.789062 L 24.671875 60.957031 C 24.328125 61.558594 24.53125 62.320312 25.132812 62.660156 C 25.328125 62.777344 25.542969 62.832031 25.757812 62.832031 C 26.1875 62.832031 26.605469 62.609375 26.835938 62.207031 L 28.085938 60.039062 C 28.433594 59.445312 28.226562 58.683594 27.632812 58.335938 C 27.480469 58.246094 27.320312 58.199219 27.160156 58.179688 Z M 32.710938 60.617188 C 32.226562 60.683594 31.808594 61.03125 31.675781 61.527344 L 31.03125 63.945312 C 30.847656 64.609375 31.246094 65.296875 31.914062 65.472656 C 32.023438 65.503906 32.128906 65.515625 32.230469 65.515625 C 32.785156 65.515625 33.296875 65.152344 33.441406 64.589844 L 34.085938 62.179688 C 34.273438 61.507812 33.871094 60.824219 33.203125 60.644531 C 33.039062 60.601562 32.871094 60.589844 32.710938 60.613281 Z M 32.710938 60.617188 "/>
</g>
</svg>
