<?xml version="1.0" encoding="UTF-8"?>
<svg xmlns="http://www.w3.org/2000/svg" xmlns:xlink="http://www.w3.org/1999/xlink" width="80pt" height="80pt" viewBox="0 0 80 80" version="1.1">
<g id="surface514371">
<path style=" stroke:none;fill-rule:nonzero;fill:rgb(77.254902%,60.784314%,15.294118%);fill-opacity:1;" d="M 40 5 C 37.246094 5 33.316406 5.859375 30.863281 7.511719 C 26.210938 7.675781 23.023438 10.949219 22.503906 16.128906 C 22.183594 19.328125 22.476562 21.617188 22.671875 23.128906 C 22.738281 23.65625 22.8125 24.253906 22.789062 24.429688 C 22.75 24.660156 22.710938 24.894531 22.675781 25.132812 C 22.46875 25.140625 22.285156 25.171875 22.128906 25.214844 C 21.003906 25.511719 20.214844 26.519531 19.902344 28.042969 C 19.652344 29.261719 19.730469 30.746094 20.125 32.222656 C 20.796875 34.71875 22.195312 36.59375 23.730469 37.167969 C 24.476562 39.453125 25.5625 41.722656 26.894531 43.792969 L 10.316406 51.722656 C 5.566406 53.996094 2.5 58.863281 2.5 64.125 L 2.5 73.75 C 2.5 75.816406 4.183594 77.5 6.25 77.5 L 73.75 77.5 C 75.816406 77.5 77.5 75.816406 77.5 73.75 L 77.5 64.125 C 77.5 58.863281 74.433594 53.996094 69.683594 51.722656 L 53.101562 43.792969 C 54.4375 41.722656 55.515625 39.453125 56.269531 37.167969 C 57.796875 36.59375 59.203125 34.71875 59.867188 32.222656 C 60.261719 30.746094 60.347656 29.261719 60.097656 28.042969 C 59.785156 26.519531 58.992188 25.511719 57.867188 25.214844 C 57.714844 25.171875 57.527344 25.140625 57.324219 25.132812 C 57.148438 23.792969 56.8125 22.542969 56.175781 20.835938 C 56.160156 20.785156 56.148438 20.742188 56.132812 20.703125 C 56.570312 20.738281 57.28125 20.917969 57.855469 21.152344 C 58.289062 21.332031 58.785156 21.253906 59.140625 20.957031 C 59.492188 20.660156 59.65625 20.191406 59.554688 19.730469 C 57.542969 10.507812 50.699219 5 41.25 5 Z M 40 7.5 L 41.25 7.5 C 48.839844 7.5 54.316406 11.378906 56.5625 18.226562 C 55.703125 18.128906 54.804688 18.238281 54.195312 18.828125 C 53.714844 19.28125 53.265625 20.15625 53.832031 21.699219 C 54.605469 23.792969 54.882812 25.035156 54.960938 26.792969 C 54.984375 27.242188 55.246094 27.640625 55.644531 27.847656 C 56.039062 28.046875 56.515625 28.027344 56.894531 27.777344 C 57.09375 27.652344 57.203125 27.632812 57.226562 27.632812 C 57.300781 27.660156 57.519531 27.921875 57.652344 28.539062 C 57.824219 29.378906 57.75 30.484375 57.460938 31.578125 C 56.839844 33.878906 55.664062 34.847656 55.292969 34.847656 C 54.742188 34.847656 54.253906 35.214844 54.097656 35.742188 C 51.988281 42.828125 46.46875 50 40 50 C 33.53125 50 28.011719 42.828125 25.910156 35.742188 C 25.746094 35.214844 25.265625 34.847656 24.707031 34.847656 C 24.339844 34.847656 23.160156 33.878906 22.542969 31.578125 C 22.25 30.484375 22.183594 29.378906 22.355469 28.539062 C 22.484375 27.90625 22.714844 27.648438 22.773438 27.632812 C 22.773438 27.632812 22.882812 27.632812 23.109375 27.777344 C 23.488281 28.023438 23.964844 28.050781 24.359375 27.847656 C 24.761719 27.640625 25.019531 27.242188 25.039062 26.792969 C 25.070312 26.136719 25.140625 25.488281 25.253906 24.863281 C 25.347656 24.328125 25.273438 23.726562 25.15625 22.8125 C 24.976562 21.410156 24.703125 19.292969 24.996094 16.371094 C 25.394531 12.382812 27.734375 10 31.273438 10 C 31.542969 10 31.808594 9.914062 32.027344 9.75 C 33.734375 8.46875 37.164062 7.5 40 7.5 Z M 33.160156 15.15625 C 32.265625 15.078125 31.367188 15.488281 30.855469 16.269531 L 28.847656 19.3125 C 28.464844 19.886719 28.628906 20.664062 29.203125 21.042969 C 29.414062 21.183594 29.652344 21.25 29.886719 21.25 C 30.296875 21.25 30.695312 21.054688 30.9375 20.6875 L 32.945312 17.644531 L 34.894531 18.597656 C 38.453125 20.335938 42.425781 21.25 46.386719 21.25 L 49.585938 21.25 C 50.277344 21.25 50.835938 20.691406 50.835938 20 C 50.835938 19.308594 50.277344 18.75 49.585938 18.75 L 46.386719 18.75 C 42.808594 18.75 39.210938 17.917969 35.992188 16.347656 L 34.039062 15.394531 C 33.753906 15.257812 33.457031 15.179688 33.160156 15.15625 Z M 28.378906 45.859375 C 31.449219 49.738281 35.503906 52.5 40 52.5 C 44.496094 52.5 48.550781 49.738281 51.621094 45.859375 L 52.425781 46.246094 L 46.367188 63.683594 L 43.847656 58.652344 L 44.9375 55.394531 C 45.15625 54.742188 44.800781 54.035156 44.144531 53.8125 C 43.488281 53.59375 42.785156 53.949219 42.5625 54.605469 L 41.601562 57.5 L 38.398438 57.5 L 37.4375 54.605469 C 37.21875 53.949219 36.519531 53.59375 35.855469 53.8125 C 35.199219 54.035156 34.84375 54.742188 35.0625 55.394531 L 36.152344 58.652344 L 33.632812 63.683594 L 27.574219 46.246094 Z M 25.304688 47.328125 L 34.925781 75 L 31.875 75 L 21.5625 61.25 L 24.75 56.996094 C 24.953125 56.734375 25.035156 56.402344 24.984375 56.074219 L 23.839844 48.027344 Z M 54.695312 47.328125 L 56.160156 48.027344 L 55.015625 56.074219 C 54.964844 56.402344 55.046875 56.734375 55.25 56.996094 L 58.414062 61.214844 L 47.03125 75 L 45.074219 75 Z M 21.472656 49.160156 L 22.441406 55.917969 L 19 60.503906 C 18.667969 60.941406 18.667969 61.558594 19 61.996094 L 28.75 75 L 6.25 75 C 5.5625 75 5 74.4375 5 73.75 L 5 64.125 C 5 59.824219 7.511719 55.835938 11.394531 53.980469 Z M 58.527344 49.160156 L 68.605469 53.980469 C 72.492188 55.835938 75 59.820312 75 64.125 L 75 73.75 C 75 74.4375 74.4375 75 73.75 75 L 50.367188 75 L 60.964844 62.039062 C 61.328125 61.597656 61.34375 60.960938 60.996094 60.503906 L 57.558594 55.917969 Z M 38.269531 60 L 41.730469 60 L 45.132812 66.8125 C 45.15625 66.859375 45.195312 66.898438 45.230469 66.949219 L 42.574219 74.589844 C 42.523438 74.726562 42.515625 74.863281 42.515625 75 L 37.484375 75 C 37.484375 74.863281 37.480469 74.726562 37.429688 74.589844 L 34.765625 66.933594 C 34.800781 66.890625 34.84375 66.859375 34.867188 66.8125 Z M 8.75 67.5 C 8.058594 67.5 7.5 68.058594 7.5 68.75 L 7.5 71.25 C 7.5 71.941406 8.058594 72.5 8.75 72.5 C 9.441406 72.5 10 71.941406 10 71.25 L 10 68.75 C 10 68.058594 9.441406 67.5 8.75 67.5 Z M 15 67.5 C 14.308594 67.5 13.75 68.058594 13.75 68.75 L 13.75 71.25 C 13.75 71.941406 14.308594 72.5 15 72.5 C 15.691406 72.5 16.25 71.941406 16.25 71.25 L 16.25 68.75 C 16.25 68.058594 15.691406 67.5 15 67.5 Z M 21.25 67.5 C 20.558594 67.5 20 68.058594 20 68.75 L 20 71.25 C 20 71.941406 20.558594 72.5 21.25 72.5 C 21.941406 72.5 22.5 71.941406 22.5 71.25 L 22.5 68.75 C 22.5 68.058594 21.941406 67.5 21.25 67.5 Z M 58.75 67.5 C 58.058594 67.5 57.5 68.058594 57.5 68.75 L 57.5 71.25 C 57.5 71.941406 58.058594 72.5 58.75 72.5 C 59.441406 72.5 60 71.941406 60 71.25 L 60 68.75 C 60 68.058594 59.441406 67.5 58.75 67.5 Z M 65 67.5 C 64.308594 67.5 63.75 68.058594 63.75 68.75 L 63.75 71.25 C 63.75 71.941406 64.308594 72.5 65 72.5 C 65.691406 72.5 66.25 71.941406 66.25 71.25 L 66.25 68.75 C 66.25 68.058594 65.691406 67.5 65 67.5 Z M 71.25 67.5 C 70.558594 67.5 70 68.058594 70 68.75 L 70 71.25 C 70 71.941406 70.558594 72.5 71.25 72.5 C 71.941406 72.5 72.5 71.941406 72.5 71.25 L 72.5 68.75 C 72.5 68.058594 71.941406 67.5 71.25 67.5 Z M 71.25 67.5 "/>
</g>
</svg>
