<?xml version="1.0" encoding="UTF-8"?>
<svg xmlns="http://www.w3.org/2000/svg" xmlns:xlink="http://www.w3.org/1999/xlink" width="80pt" height="80pt" viewBox="0 0 80 80" version="1.1">
<g id="surface960026">
<path style=" stroke:none;fill-rule:nonzero;fill:rgb(77.254902%,60.784314%,15.294118%);fill-opacity:1;" d="M 61.28125 2.496094 C 60.691406 2.496094 60.101562 2.691406 59.613281 3.085938 L 58.632812 3.871094 C 55.445312 6.421875 51.605469 7.910156 47.535156 8.183594 L 44.980469 8.355469 C 44.808594 8.363281 44.636719 8.398438 44.472656 8.4375 C 40.78125 7.835938 36.753906 7.5 32.5 7.5 C 14.277344 7.5 0 13.539062 0 21.25 L 0 58.75 C 0 66.460938 14.277344 72.5 32.5 72.5 C 50.722656 72.5 65 66.460938 65 58.75 L 65 41.921875 L 69.515625 37.992188 C 75.429688 32.855469 79 25.71875 79.558594 17.90625 L 80.042969 11.171875 C 80.136719 9.714844 79.027344 8.453125 77.574219 8.355469 L 75.019531 8.183594 C 70.945312 7.910156 67.113281 6.421875 63.925781 3.867188 L 62.933594 3.085938 C 62.449219 2.691406 61.863281 2.496094 61.277344 2.496094 Z M 61.273438 5 C 61.3125 5 61.347656 5.011719 61.378906 5.035156 L 62.363281 5.820312 C 65.945312 8.695312 70.269531 10.375 74.859375 10.679688 L 77.402344 10.847656 C 77.488281 10.855469 77.558594 10.929688 77.554688 11.007812 L 77.070312 17.730469 C 76.550781 24.878906 73.285156 31.402344 67.875 36.109375 L 61.375 41.757812 C 61.316406 41.8125 61.230469 41.8125 61.171875 41.757812 L 54.671875 36.113281 C 49.261719 31.40625 46 24.878906 45.484375 17.730469 L 45 11.015625 C 44.996094 10.933594 45.058594 10.855469 45.144531 10.847656 L 47.695312 10.679688 C 52.285156 10.371094 56.601562 8.695312 60.191406 5.820312 L 61.175781 5.035156 C 61.207031 5.011719 61.238281 5 61.273438 5 Z M 32.5 10 C 36.109375 10 39.449219 10.253906 42.523438 10.679688 C 42.503906 10.84375 42.496094 11.011719 42.503906 11.183594 L 42.988281 17.90625 C 43.332031 22.621094 44.785156 27.085938 47.167969 31.015625 C 42.945312 31.9375 38.011719 32.5 32.5 32.5 C 14.554688 32.5 2.5 26.683594 2.5 21.25 C 2.5 15.816406 14.554688 10 32.5 10 Z M 32.5 12.5 C 26.972656 12.5 21.761719 13.078125 17.421875 14.164062 C 16.753906 14.332031 16.347656 15.015625 16.519531 15.683594 C 16.660156 16.25 17.167969 16.625 17.730469 16.625 C 17.832031 16.625 17.933594 16.617188 18.03125 16.585938 C 22.113281 15.566406 27.25 15 32.5 15 C 34.160156 15 35.816406 15.054688 37.421875 15.160156 C 38.105469 15.230469 38.707031 14.691406 38.75 14.003906 C 38.796875 13.308594 38.277344 12.714844 37.589844 12.671875 C 35.929688 12.558594 34.214844 12.5 32.5 12.5 Z M 2.5 26.636719 C 7.359375 31.597656 18.816406 35 32.5 35 C 38.429688 35 43.914062 34.351562 48.652344 33.222656 C 49.925781 34.945312 51.378906 36.554688 53.03125 37.992188 L 56.019531 40.59375 C 50.753906 43.164062 42.566406 45 32.5 45 C 14.554688 45 2.5 39.183594 2.5 33.75 Z M 2.5 39.136719 C 7.359375 44.097656 18.816406 47.5 32.5 47.5 C 42.96875 47.5 52.132812 45.503906 58.039062 42.34375 L 59.53125 43.648438 C 60.023438 44.078125 60.648438 44.296875 61.273438 44.296875 C 61.699219 44.296875 62.113281 44.1875 62.5 43.988281 L 62.5 46.25 C 62.5 48.414062 60.582031 50.648438 57.105469 52.542969 C 56.5 52.875 56.273438 53.632812 56.601562 54.238281 C 56.832031 54.65625 57.261719 54.890625 57.699219 54.890625 C 57.90625 54.890625 58.109375 54.84375 58.300781 54.742188 C 60.035156 53.796875 61.429688 52.761719 62.5 51.664062 L 62.5 58.75 C 62.5 64.183594 50.445312 70 32.5 70 C 14.554688 70 2.5 64.183594 2.5 58.75 L 2.5 51.605469 C 6.519531 55.738281 15.097656 58.839844 26.070312 59.742188 C 26.105469 59.742188 26.140625 59.746094 26.171875 59.746094 C 26.820312 59.746094 27.363281 59.25 27.421875 58.59375 C 27.476562 57.910156 26.960938 57.304688 26.273438 57.246094 C 12.71875 56.132812 2.5 51.40625 2.5 46.25 Z M 51.25 52.5 C 50.558594 52.5 50 53.0625 50 53.75 L 50 56.25 C 50 56.9375 50.558594 57.5 51.25 57.5 C 51.941406 57.5 52.5 56.9375 52.5 56.25 L 52.5 53.75 C 52.5 53.0625 51.941406 52.5 51.25 52.5 Z M 45 53.871094 C 44.308594 53.871094 43.75 54.433594 43.75 55.121094 L 43.75 57.621094 C 43.75 58.316406 44.308594 58.871094 45 58.871094 C 45.691406 58.871094 46.25 58.316406 46.25 57.621094 L 46.25 55.121094 C 46.25 54.433594 45.691406 53.871094 45 53.871094 Z M 38.75 54.75 C 38.058594 54.75 37.5 55.3125 37.5 56 L 37.5 58.5 C 37.5 59.191406 38.058594 59.75 38.75 59.75 C 39.441406 59.75 40 59.191406 40 58.5 L 40 56 C 40 55.3125 39.441406 54.75 38.75 54.75 Z M 32.5 55 C 31.808594 55 31.25 55.5625 31.25 56.25 L 31.25 58.75 C 31.25 59.4375 31.808594 60 32.5 60 C 33.191406 60 33.75 59.4375 33.75 58.75 L 33.75 56.25 C 33.75 55.5625 33.191406 55 32.5 55 Z M 32.5 55 "/>
</g>
</svg>
