<?xml version="1.0" encoding="UTF-8"?>
<svg xmlns="http://www.w3.org/2000/svg" xmlns:xlink="http://www.w3.org/1999/xlink" width="80pt" height="80pt" viewBox="0 0 80 80" version="1.1">
<g id="surface514587">
<path style=" stroke:none;fill-rule:nonzero;fill:rgb(77.254902%,60.784314%,15.294118%);fill-opacity:1;" d="M 54.75 6.601562 C 53.117188 6.695312 51.511719 7.09375 50 7.851562 L 41.199219 12.148438 L 16.199219 12.148438 L 2 8.699219 C 1.789062 8.636719 1.570312 8.625 1.351562 8.648438 C 0.574219 8.742188 -0.0117188 9.382812 -0.0507812 10.164062 C -0.0859375 10.9375 0.4375 11.632812 1.199219 11.800781 L 15.601562 15.300781 L 15.800781 15.351562 L 34.648438 15.351562 L 21.050781 22 C 20.992188 22.023438 20.957031 22.074219 20.898438 22.101562 C 18.789062 23.03125 18.230469 25.917969 19.800781 27.601562 L 19.75 27.648438 C 19.773438 27.675781 19.824219 27.675781 19.851562 27.699219 C 24.613281 32.917969 32.15625 34.648438 38.800781 32.050781 L 38.851562 32.050781 L 48.25 28.398438 L 67.648438 47.851562 C 69.117188 49.320312 69.117188 51.632812 67.648438 53.101562 C 66.179688 54.570312 63.867188 54.570312 62.398438 53.101562 C 61.761719 52.585938 60.84375 52.636719 60.261719 53.210938 C 59.6875 53.792969 59.636719 54.710938 60.148438 55.351562 C 61.617188 56.820312 61.617188 59.179688 60.148438 60.648438 C 58.679688 62.117188 56.367188 62.117188 54.898438 60.648438 L 53.75 59.5 C 53.113281 58.988281 52.195312 59.039062 51.613281 59.613281 C 51.039062 60.195312 50.988281 61.113281 51.5 61.75 C 52.96875 63.21875 52.96875 65.582031 51.5 67.050781 C 50.03125 68.519531 47.71875 68.519531 46.25 67.050781 L 45.148438 65.898438 C 44.53125 65.261719 43.511719 65.257812 42.875 65.875 C 42.238281 66.492188 42.230469 67.511719 42.851562 68.148438 C 44.320312 69.617188 44.320312 71.980469 42.851562 73.449219 C 41.382812 74.917969 39.070312 74.917969 37.601562 73.449219 L 35.601562 71.449219 L 36.800781 70.25 C 39.144531 67.90625 39.144531 64.09375 36.800781 61.75 C 35.632812 60.582031 34.085938 60 32.550781 60 C 32.53125 60 32.519531 60 32.5 60 C 32.523438 58.425781 31.945312 56.84375 30.75 55.648438 C 29.582031 54.480469 28.039062 53.898438 26.5 53.898438 C 26.417969 53.898438 26.332031 53.894531 26.25 53.898438 C 26.300781 52.292969 25.726562 50.675781 24.5 49.449219 C 23.332031 48.28125 21.789062 47.648438 20.25 47.648438 C 20.167969 47.648438 20.082031 47.644531 20 47.648438 C 20.050781 46.042969 19.476562 44.425781 18.25 43.199219 C 17.082031 42.03125 15.539062 41.449219 14 41.449219 C 12.460938 41.449219 10.917969 42.03125 9.75 43.199219 L 8.300781 44.648438 L 1.851562 43.550781 C 1.75 43.523438 1.648438 43.507812 1.550781 43.5 C 0.667969 43.445312 -0.09375 44.117188 -0.148438 45 C -0.207031 45.882812 0.46875 46.644531 1.351562 46.699219 L 6.601562 47.648438 C 6.125 49.617188 6.617188 51.769531 8.148438 53.300781 C 9.386719 54.539062 11.03125 55.117188 12.648438 55.050781 C 12.582031 56.667969 13.164062 58.3125 14.398438 59.550781 C 15.636719 60.789062 17.28125 61.367188 18.898438 61.300781 C 18.851562 62.90625 19.425781 64.523438 20.648438 65.75 C 21.84375 66.945312 23.425781 67.523438 25 67.5 C 24.960938 69.082031 25.523438 70.675781 26.699219 71.851562 L 26.75 71.898438 C 28.417969 73.53125 30.820312 73.960938 32.898438 73.25 L 35.351562 75.699219 C 38.039062 78.386719 42.460938 78.386719 45.148438 75.699219 C 46.457031 74.394531 47.0625 72.667969 47.101562 70.949219 C 49.414062 71.5625 51.949219 71.101562 53.75 69.300781 C 55.054688 67.992188 55.710938 66.269531 55.75 64.550781 C 58.054688 65.15625 60.601562 64.699219 62.398438 62.898438 C 63.9375 61.363281 64.519531 59.269531 64.300781 57.25 C 66.320312 57.476562 68.414062 56.886719 69.949219 55.351562 C 71.667969 53.632812 72.28125 51.21875 71.800781 49 L 72.75 48.050781 L 78.648438 47.199219 C 79.53125 47.0625 80.136719 46.230469 80 45.351562 C 79.863281 44.46875 79.03125 43.863281 78.148438 44 L 71.75 45 L 71.25 45.050781 L 70.300781 46 C 70.1875 45.867188 70.074219 45.726562 69.949219 45.601562 L 50.25 25.898438 C 50.175781 25.824219 50.085938 25.757812 50 25.699219 C 49.980469 25.679688 49.96875 25.667969 49.949219 25.648438 C 49.53125 25.03125 48.742188 24.789062 48.050781 25.050781 L 37.648438 29.050781 C 32.179688 31.210938 26.023438 29.804688 22.148438 25.5 L 22.101562 25.449219 C 21.894531 25.242188 21.882812 25.101562 22.148438 25 L 22.25 25 L 22.300781 24.949219 L 42.050781 15.300781 C 42.386719 15.25 42.707031 15.09375 42.949219 14.851562 L 51.398438 10.699219 L 51.449219 10.699219 C 54.398438 9.226562 57.84375 9.523438 60.550781 11.351562 L 61.148438 12.050781 L 61.300781 12.25 L 61.5 12.351562 C 64.40625 14.351562 67.90625 14.882812 71.199219 14 L 71.199219 14.050781 L 71.300781 14 L 78.75 12.449219 C 79.617188 12.257812 80.167969 11.394531 79.976562 10.523438 C 79.78125 9.65625 78.917969 9.105469 78.050781 9.300781 L 70.550781 10.898438 L 70.5 10.949219 L 70.449219 10.949219 C 68.0625 11.613281 65.601562 11.175781 63.449219 9.75 L 62.851562 9.050781 L 62.699219 8.898438 L 62.5 8.75 C 60.664062 7.460938 58.5625 6.761719 56.398438 6.601562 C 55.855469 6.5625 55.292969 6.570312 54.75 6.601562 Z M 14 44.550781 C 14.699219 44.550781 15.414062 44.863281 16 45.449219 C 17.175781 46.625 17.175781 48.273438 16 49.449219 L 14.75 50.648438 L 14.601562 50.800781 L 14.398438 51.050781 C 13.226562 52.226562 11.574219 52.226562 10.398438 51.050781 C 9.4375 50.085938 9.292969 48.824219 9.898438 47.75 C 10.179688 47.550781 10.386719 47.273438 10.5 46.949219 L 11.800781 45.699219 L 12 45.449219 C 12.585938 44.863281 13.300781 44.550781 14 44.550781 Z M 20.25 50.800781 C 20.949219 50.800781 21.664062 51.113281 22.25 51.699219 C 23.425781 52.875 23.425781 54.476562 22.25 55.648438 L 20.648438 57.25 C 19.476562 58.425781 17.824219 58.425781 16.648438 57.25 C 15.476562 56.074219 15.476562 54.476562 16.648438 53.300781 L 18.25 51.699219 C 18.835938 51.113281 19.550781 50.800781 20.25 50.800781 Z M 26.5 57.050781 C 27.199219 57.050781 27.863281 57.363281 28.449219 57.949219 C 29.417969 58.917969 29.582031 60.179688 28.949219 61.25 C 28.730469 61.414062 28.5 61.550781 28.300781 61.75 L 26.699219 63.351562 L 26.699219 63.398438 L 26.648438 63.398438 C 26.476562 63.59375 26.34375 63.792969 26.199219 64 C 25.132812 64.632812 23.867188 64.46875 22.898438 63.5 C 21.726562 62.324219 21.726562 60.726562 22.898438 59.550781 L 24.101562 58.300781 L 24.398438 58.050781 L 24.5 57.949219 C 25.085938 57.363281 25.800781 57.050781 26.5 57.050781 Z M 32.550781 63.148438 C 33.25 63.148438 33.960938 63.414062 34.550781 64 C 35.726562 65.175781 35.726562 66.824219 34.550781 68 L 32.949219 69.601562 C 32.8125 69.738281 32.699219 69.894531 32.550781 70 C 32.539062 70.007812 32.511719 69.992188 32.5 70 C 31.382812 70.773438 29.980469 70.632812 28.949219 69.601562 C 28.195312 68.84375 28.019531 67.332031 28.550781 66.199219 C 28.75 66.042969 28.96875 65.929688 29.148438 65.75 L 30.75 64.148438 C 30.960938 63.9375 31.125 63.6875 31.300781 63.449219 C 31.699219 63.25 32.132812 63.148438 32.550781 63.148438 Z M 32.550781 63.148438 "/>
</g>
</svg>
