<?xml version="1.0" encoding="UTF-8"?>
<svg xmlns="http://www.w3.org/2000/svg" xmlns:xlink="http://www.w3.org/1999/xlink" width="80pt" height="80pt" viewBox="0 0 80 80" version="1.1">
<g id="surface514620">
<path style=" stroke:none;fill-rule:nonzero;fill:rgb(77.254902%,60.784314%,15.294118%);fill-opacity:1;" d="M 27.171875 11.457031 C 27.066406 11.457031 26.964844 11.496094 26.886719 11.574219 C 26.730469 11.730469 26.730469 11.984375 26.886719 12.140625 L 35.203125 20.453125 C 34.246094 21.386719 33.558594 22.605469 33.28125 23.988281 L 22.953125 23.988281 C 18.648438 23.988281 15.148438 27.488281 15.148438 31.789062 L 15.148438 53.785156 C 15.148438 58.003906 18.515625 61.441406 22.703125 61.574219 L 20.667969 66.414062 C 20.359375 67.148438 20.589844 67.941406 21.242188 68.390625 C 21.53125 68.589844 21.855469 68.6875 22.175781 68.6875 C 22.574219 68.6875 22.96875 68.535156 23.289062 68.234375 L 30.324219 61.585938 L 49.675781 61.585938 L 56.710938 68.234375 C 57.03125 68.535156 57.425781 68.691406 57.824219 68.691406 C 58.144531 68.691406 58.46875 68.59375 58.757812 68.390625 C 59.40625 67.941406 59.640625 67.148438 59.332031 66.417969 L 57.296875 61.570312 C 61.4375 61.386719 64.75 57.96875 64.75 53.785156 L 64.75 31.789062 C 64.75 27.488281 61.25 23.988281 56.945312 23.988281 L 46.71875 23.988281 C 46.441406 22.605469 45.757812 21.390625 44.800781 20.453125 L 53.113281 12.140625 C 53.269531 11.984375 53.269531 11.730469 53.113281 11.574219 C 52.957031 11.417969 52.703125 11.417969 52.546875 11.574219 L 44.195312 19.925781 C 43.035156 19.03125 41.578125 18.5 40 18.5 C 38.417969 18.5 36.964844 19.03125 35.804688 19.925781 L 27.453125 11.574219 C 27.375 11.496094 27.273438 11.457031 27.171875 11.457031 Z M 40 20.101562 C 42.425781 20.101562 44.476562 21.722656 45.082031 23.988281 L 34.921875 23.988281 C 35.523438 21.722656 37.574219 20.101562 40 20.101562 Z M 22.953125 25.585938 L 56.949219 25.585938 C 60.367188 25.585938 63.148438 28.367188 63.148438 31.789062 L 63.148438 53.785156 C 63.148438 57.203125 60.367188 59.988281 56.945312 59.988281 L 22.953125 59.988281 C 19.53125 59.988281 16.75 57.203125 16.75 53.785156 L 16.75 31.789062 C 16.75 28.367188 19.53125 25.585938 22.953125 25.585938 Z M 25.824219 29.585938 C 23.027344 29.585938 20.75 31.863281 20.75 34.664062 L 20.75 51.710938 C 20.75 54.511719 23.027344 56.789062 25.824219 56.789062 L 42.875 56.789062 C 45.671875 56.789062 47.949219 54.511719 47.949219 51.710938 L 47.949219 34.664062 C 47.949219 31.863281 45.671875 29.585938 42.875 29.585938 Z M 25.824219 30.386719 L 42.875 30.386719 C 45.234375 30.386719 47.148438 32.304688 47.148438 34.664062 L 47.148438 51.710938 C 47.148438 54.070312 45.230469 55.988281 42.875 55.988281 L 25.824219 55.988281 C 23.46875 55.988281 21.550781 54.070312 21.550781 51.710938 L 21.550781 34.664062 C 21.550781 32.304688 23.464844 30.386719 25.824219 30.386719 Z M 55.148438 39.1875 C 53.828125 39.1875 52.75 40.265625 52.75 41.585938 C 52.75 42.910156 53.828125 43.988281 55.148438 43.988281 C 56.472656 43.988281 57.550781 42.910156 57.550781 41.585938 C 57.550781 40.265625 56.472656 39.1875 55.148438 39.1875 Z M 55.148438 39.988281 C 56.03125 39.988281 56.75 40.707031 56.75 41.585938 C 56.75 42.46875 56.03125 43.1875 55.148438 43.1875 C 54.269531 43.1875 53.550781 42.46875 53.550781 41.585938 C 53.550781 40.707031 54.269531 39.988281 55.148438 39.988281 Z M 55.148438 47.1875 C 52.945312 47.1875 51.148438 48.980469 51.148438 51.1875 C 51.148438 53.394531 52.945312 55.1875 55.148438 55.1875 C 57.355469 55.1875 59.148438 53.394531 59.148438 51.1875 C 59.148438 48.980469 57.355469 47.1875 55.148438 47.1875 Z M 55.148438 47.988281 C 56.914062 47.988281 58.351562 49.421875 58.351562 51.1875 C 58.351562 52.953125 56.914062 54.386719 55.148438 54.386719 C 53.386719 54.386719 51.949219 52.953125 51.949219 51.1875 C 51.949219 49.421875 53.386719 47.988281 55.148438 47.988281 Z M 50.839844 61.585938 L 56.4375 61.585938 L 58.59375 66.726562 C 58.785156 67.1875 58.558594 67.558594 58.300781 67.734375 C 58.046875 67.910156 57.621094 67.992188 57.261719 67.652344 Z M 23.5625 61.585938 L 29.160156 61.585938 L 22.734375 67.652344 C 22.378906 67.992188 21.953125 67.910156 21.699219 67.734375 C 21.441406 67.558594 21.210938 67.1875 21.40625 66.726562 Z M 23.5625 61.585938 "/>
</g>
</svg>
