<?xml version="1.0" encoding="UTF-8"?>
<svg xmlns="http://www.w3.org/2000/svg" xmlns:xlink="http://www.w3.org/1999/xlink" width="80pt" height="80pt" viewBox="0 0 80 80" version="1.1">
<g id="surface514615">
<path style=" stroke:none;fill-rule:nonzero;fill:rgb(77.254902%,60.784314%,15.294118%);fill-opacity:1;" d="M 22 9 C 18.144531 9 15 12.144531 15 16 C 15 19.855469 18.144531 23 22 23 C 25.855469 23 29 19.855469 29 16 C 29 12.144531 25.855469 9 22 9 Z M 22 11 C 24.773438 11 27 13.226562 27 16 C 27 18.773438 24.773438 21 22 21 C 19.226562 21 17 18.773438 17 16 C 17 13.226562 19.226562 11 22 11 Z M 15 25 C 11.699219 25 9 27.699219 9 31 L 9 47.5 C 9 49.421875 10.578125 51 12.5 51 C 13.042969 51 13.539062 50.851562 14 50.628906 L 14 67.5 C 14 69.421875 15.578125 71 17.5 71 C 19.421875 71 21 69.421875 21 67.5 L 21 53 L 23 53 L 23 67.5 C 23 69.421875 24.578125 71 26.5 71 C 28.421875 71 30 69.421875 30 67.5 L 30 32 L 46.5 32 C 48.421875 32 50 30.421875 50 28.5 C 50 26.578125 48.421875 25 46.5 25 L 24.433594 25 L 22 29.058594 L 19.566406 25 Z M 54 25 L 54 27 L 71 27 L 71 25 Z M 15 27 L 18.433594 27 L 22 32.941406 L 25.566406 27 L 46.5 27 C 47.339844 27 48 27.660156 48 28.5 C 48 29.339844 47.339844 30 46.5 30 L 28 30 L 28 67.5 C 28 68.339844 27.339844 69 26.5 69 C 25.660156 69 25 68.339844 25 67.5 L 25 51 L 19 51 L 19 67.5 C 19 68.339844 18.339844 69 17.5 69 C 16.660156 69 16 68.339844 16 67.5 L 16 47.5 L 14 47.5 C 14 48.339844 13.339844 49 12.5 49 C 11.660156 49 11 48.339844 11 47.5 L 11 31 C 11 28.78125 12.78125 27 15 27 Z M 55 29 C 54.449219 29 54 29.449219 54 30 C 54 30.550781 54.449219 31 55 31 C 55.550781 31 56 30.550781 56 30 C 56 29.449219 55.550781 29 55 29 Z M 59 29 C 58.449219 29 58 29.449219 58 30 C 58 30.550781 58.449219 31 59 31 C 59.550781 31 60 30.550781 60 30 C 60 29.449219 59.550781 29 59 29 Z M 63 29 C 62.449219 29 62 29.449219 62 30 C 62 30.550781 62.449219 31 63 31 C 63.550781 31 64 30.550781 64 30 C 64 29.449219 63.550781 29 63 29 Z M 67 29 C 66.449219 29 66 29.449219 66 30 C 66 30.550781 66.449219 31 67 31 C 67.550781 31 68 30.550781 68 30 C 68 29.449219 67.550781 29 67 29 Z M 15 32 C 14.449219 32 14 32.449219 14 33 C 14 33.550781 14.449219 34 15 34 C 15.550781 34 16 33.550781 16 33 C 16 32.449219 15.550781 32 15 32 Z M 15 36 C 14.449219 36 14 36.449219 14 37 C 14 37.550781 14.449219 38 15 38 C 15.550781 38 16 37.550781 16 37 C 16 36.449219 15.550781 36 15 36 Z M 37 38 L 37 44 L 43 44 L 43 38 Z M 47 38 L 47 40 L 71 40 L 71 38 Z M 15 40 C 14.449219 40 14 40.449219 14 41 C 14 41.550781 14.449219 42 15 42 C 15.550781 42 16 41.550781 16 41 C 16 40.449219 15.550781 40 15 40 Z M 39 40 L 41 40 L 41 42 L 39 42 Z M 48 42 C 47.449219 42 47 42.449219 47 43 C 47 43.550781 47.449219 44 48 44 C 48.550781 44 49 43.550781 49 43 C 49 42.449219 48.550781 42 48 42 Z M 52 42 C 51.449219 42 51 42.449219 51 43 C 51 43.550781 51.449219 44 52 44 C 52.550781 44 53 43.550781 53 43 C 53 42.449219 52.550781 42 52 42 Z M 56 42 C 55.449219 42 55 42.449219 55 43 C 55 43.550781 55.449219 44 56 44 C 56.550781 44 57 43.550781 57 43 C 57 42.449219 56.550781 42 56 42 Z M 60 42 C 59.449219 42 59 42.449219 59 43 C 59 43.550781 59.449219 44 60 44 C 60.550781 44 61 43.550781 61 43 C 61 42.449219 60.550781 42 60 42 Z M 64 42 C 63.449219 42 63 42.449219 63 43 C 63 43.550781 63.449219 44 64 44 C 64.550781 44 65 43.550781 65 43 C 65 42.449219 64.550781 42 64 42 Z M 68 42 C 67.449219 42 67 42.449219 67 43 C 67 43.550781 67.449219 44 68 44 C 68.550781 44 69 43.550781 69 43 C 69 42.449219 68.550781 42 68 42 Z M 15 44 C 14.449219 44 14 44.449219 14 45 C 14 45.550781 14.449219 46 15 46 C 15.550781 46 16 45.550781 16 45 C 16 44.449219 15.550781 44 15 44 Z M 37 51 L 37 57 L 43 57 L 43 51 Z M 47 51 L 47 53 L 71 53 L 71 51 Z M 39 53 L 41 53 L 41 55 L 39 55 Z M 48 55 C 47.449219 55 47 55.449219 47 56 C 47 56.550781 47.449219 57 48 57 C 48.550781 57 49 56.550781 49 56 C 49 55.449219 48.550781 55 48 55 Z M 52 55 C 51.449219 55 51 55.449219 51 56 C 51 56.550781 51.449219 57 52 57 C 52.550781 57 53 56.550781 53 56 C 53 55.449219 52.550781 55 52 55 Z M 56 55 C 55.449219 55 55 55.449219 55 56 C 55 56.550781 55.449219 57 56 57 C 56.550781 57 57 56.550781 57 56 C 57 55.449219 56.550781 55 56 55 Z M 60 55 C 59.449219 55 59 55.449219 59 56 C 59 56.550781 59.449219 57 60 57 C 60.550781 57 61 56.550781 61 56 C 61 55.449219 60.550781 55 60 55 Z M 64 55 C 63.449219 55 63 55.449219 63 56 C 63 56.550781 63.449219 57 64 57 C 64.550781 57 65 56.550781 65 56 C 65 55.449219 64.550781 55 64 55 Z M 68 55 C 67.449219 55 67 55.449219 67 56 C 67 56.550781 67.449219 57 68 57 C 68.550781 57 69 56.550781 69 56 C 69 55.449219 68.550781 55 68 55 Z M 37 64 L 37 70 L 43 70 L 43 64 Z M 47 64 L 47 66 L 71 66 L 71 64 Z M 39 66 L 41 66 L 41 68 L 39 68 Z M 48 68 C 47.449219 68 47 68.449219 47 69 C 47 69.550781 47.449219 70 48 70 C 48.550781 70 49 69.550781 49 69 C 49 68.449219 48.550781 68 48 68 Z M 52 68 C 51.449219 68 51 68.449219 51 69 C 51 69.550781 51.449219 70 52 70 C 52.550781 70 53 69.550781 53 69 C 53 68.449219 52.550781 68 52 68 Z M 56 68 C 55.449219 68 55 68.449219 55 69 C 55 69.550781 55.449219 70 56 70 C 56.550781 70 57 69.550781 57 69 C 57 68.449219 56.550781 68 56 68 Z M 60 68 C 59.449219 68 59 68.449219 59 69 C 59 69.550781 59.449219 70 60 70 C 60.550781 70 61 69.550781 61 69 C 61 68.449219 60.550781 68 60 68 Z M 64 68 C 63.449219 68 63 68.449219 63 69 C 63 69.550781 63.449219 70 64 70 C 64.550781 70 65 69.550781 65 69 C 65 68.449219 64.550781 68 64 68 Z M 68 68 C 67.449219 68 67 68.449219 67 69 C 67 69.550781 67.449219 70 68 70 C 68.550781 70 69 69.550781 69 69 C 69 68.449219 68.550781 68 68 68 Z M 68 68 "/>
</g>
</svg>
