<?xml version="1.0" encoding="UTF-8"?>
<svg xmlns="http://www.w3.org/2000/svg" xmlns:xlink="http://www.w3.org/1999/xlink" width="80pt" height="80pt" viewBox="0 0 80 80" version="1.1">
<g id="surface514595">
<path style=" stroke:none;fill-rule:nonzero;fill:rgb(77.254902%,60.784314%,15.294118%);fill-opacity:1;" d="M 28.800781 9.601562 C 25.269531 9.601562 22.398438 12.46875 22.398438 16 C 22.398438 19.53125 25.269531 22.398438 28.800781 22.398438 C 29.757812 22.398438 30.652344 22.15625 31.46875 21.777344 L 35.195312 28.410156 C 33.726562 30.453125 32.261719 32.515625 30.390625 35.199219 L 14.398438 35.199219 C 12.195312 35.199219 10.398438 36.996094 10.398438 39.199219 L 10.398438 64.800781 C 10.398438 67.003906 12.195312 68.800781 14.398438 68.800781 L 65.601562 68.800781 C 67.804688 68.800781 69.601562 67.003906 69.601562 64.800781 L 69.601562 39.199219 C 69.601562 36.996094 67.804688 35.199219 65.601562 35.199219 L 49.613281 35.199219 C 47.980469 32.855469 46.207031 30.363281 44.804688 28.40625 L 48.53125 21.777344 C 49.347656 22.15625 50.242188 22.398438 51.199219 22.398438 C 54.730469 22.398438 57.601562 19.53125 57.601562 16 C 57.601562 12.46875 54.730469 9.601562 51.199219 9.601562 C 48.152344 9.601562 45.621094 11.746094 44.980469 14.605469 C 44.949219 14.652344 44.929688 14.703125 44.921875 14.757812 C 44.921875 14.757812 44.460938 17.40625 43.058594 19.703125 C 42.101562 21.277344 40.972656 22.445312 40 23.28125 C 39.027344 22.445312 37.898438 21.273438 36.9375 19.703125 C 35.539062 17.40625 35.078125 14.757812 35.078125 14.757812 C 35.070312 14.707031 35.050781 14.65625 35.023438 14.613281 C 35.023438 14.609375 35.019531 14.609375 35.019531 14.609375 C 34.382812 11.746094 31.847656 9.601562 28.800781 9.601562 Z M 28.800781 10.398438 C 31.519531 10.398438 33.78125 12.335938 34.289062 14.902344 C 34.292969 14.921875 34.300781 14.941406 34.304688 14.957031 C 34.324219 15.066406 34.785156 17.703125 36.257812 20.121094 C 37.234375 21.726562 38.371094 22.890625 39.371094 23.765625 C 38.589844 24.347656 37.839844 24.828125 37.824219 24.839844 C 37.824219 24.839844 37.816406 24.84375 37.816406 24.84375 C 37.804688 24.851562 37.792969 24.855469 37.78125 24.863281 C 37.78125 24.863281 37.78125 24.863281 37.78125 24.867188 C 37.769531 24.871094 37.761719 24.878906 37.75 24.886719 C 37.75 24.886719 37.75 24.886719 37.75 24.890625 C 37.738281 24.898438 37.730469 24.90625 37.71875 24.914062 C 37.710938 24.925781 37.703125 24.933594 37.695312 24.945312 C 37.691406 24.945312 37.691406 24.945312 37.691406 24.945312 C 37.6875 24.953125 37.679688 24.957031 37.675781 24.964844 C 37.675781 24.964844 36.746094 26.253906 35.710938 27.691406 L 31.996094 21.085938 C 31.886719 20.894531 31.648438 20.824219 31.457031 20.929688 C 30.664062 21.355469 29.761719 21.601562 28.800781 21.601562 C 25.703125 21.601562 23.199219 19.097656 23.199219 16 C 23.199219 12.902344 25.703125 10.398438 28.800781 10.398438 Z M 51.199219 10.398438 C 54.296875 10.398438 56.800781 12.902344 56.800781 16 C 56.800781 19.097656 54.296875 21.601562 51.199219 21.601562 C 50.238281 21.601562 49.335938 21.355469 48.542969 20.929688 C 48.351562 20.824219 48.113281 20.894531 48.003906 21.085938 L 43.984375 28.234375 L 40.867188 33.773438 L 39.6875 35.230469 L 35.746094 40.101562 C 35.714844 40.128906 35.691406 40.160156 35.671875 40.195312 L 27.5625 50.210938 C 27.160156 49.90625 25.601562 48.652344 25.601562 46 C 25.601562 44.859375 25.84375 43.933594 26.355469 42.875 C 26.871094 41.8125 27.660156 40.621094 28.734375 39.023438 C 32.039062 34.082031 38.246094 25.542969 38.289062 25.484375 C 38.332031 25.460938 38.558594 25.339844 38.890625 25.128906 C 38.894531 25.125 38.902344 25.121094 38.90625 25.117188 C 39.941406 24.453125 42.078125 22.855469 43.742188 20.121094 C 45.210938 17.714844 45.667969 15.097656 45.6875 14.96875 C 45.699219 14.949219 45.703125 14.925781 45.710938 14.902344 C 46.21875 12.335938 48.480469 10.398438 51.199219 10.398438 Z M 28.800781 12.800781 C 27.039062 12.800781 25.601562 14.238281 25.601562 16 C 25.601562 17.761719 27.039062 19.199219 28.800781 19.199219 C 30.5625 19.199219 32 17.761719 32 16 C 32 14.238281 30.5625 12.800781 28.800781 12.800781 Z M 51.199219 12.800781 C 49.4375 12.800781 48 14.238281 48 16 C 48 17.761719 49.4375 19.199219 51.199219 19.199219 C 52.960938 19.199219 54.398438 17.761719 54.398438 16 C 54.398438 14.238281 52.960938 12.800781 51.199219 12.800781 Z M 28.800781 13.601562 C 30.128906 13.601562 31.199219 14.667969 31.199219 16 C 31.199219 17.332031 30.128906 18.398438 28.800781 18.398438 C 27.46875 18.398438 26.398438 17.332031 26.398438 16 C 26.398438 14.667969 27.46875 13.601562 28.800781 13.601562 Z M 51.199219 13.601562 C 52.53125 13.601562 53.601562 14.667969 53.601562 16 C 53.601562 17.332031 52.53125 18.398438 51.199219 18.398438 C 49.871094 18.398438 48.800781 17.332031 48.800781 16 C 48.800781 14.667969 49.871094 13.601562 51.199219 13.601562 Z M 40 27.199219 C 39.5 27.199219 39.074219 27.402344 38.800781 27.710938 C 38.527344 28.015625 38.398438 28.410156 38.398438 28.800781 C 38.398438 29.1875 38.527344 29.582031 38.800781 29.890625 C 39.074219 30.199219 39.5 30.398438 40 30.398438 C 40.5 30.398438 40.925781 30.199219 41.199219 29.890625 C 41.472656 29.582031 41.601562 29.1875 41.601562 28.800781 C 41.601562 28.410156 41.472656 28.015625 41.199219 27.710938 C 40.925781 27.402344 40.5 27.199219 40 27.199219 Z M 40 28 C 40.300781 28 40.476562 28.097656 40.601562 28.242188 C 40.726562 28.382812 40.800781 28.589844 40.800781 28.800781 C 40.800781 29.011719 40.726562 29.21875 40.601562 29.359375 C 40.476562 29.5 40.300781 29.601562 40 29.601562 C 39.699219 29.601562 39.523438 29.5 39.398438 29.359375 C 39.273438 29.21875 39.199219 29.011719 39.199219 28.800781 C 39.199219 28.589844 39.273438 28.382812 39.398438 28.242188 C 39.523438 28.097656 39.699219 28 40 28 Z M 44.371094 29.179688 C 45.644531 30.953125 47.171875 33.113281 48.632812 35.199219 L 40.742188 35.199219 L 41.511719 34.25 C 41.523438 34.234375 41.539062 34.214844 41.546875 34.195312 Z M 14.398438 36.800781 L 29.289062 36.800781 C 28.886719 37.390625 28.417969 38.054688 28.066406 38.578125 C 26.996094 40.179688 26.1875 41.386719 25.636719 42.527344 C 25.085938 43.664062 24.800781 44.742188 24.800781 46 C 24.800781 47.1875 25.121094 48.15625 25.53125 48.933594 C 24.191406 49.3125 23.199219 50.539062 23.199219 52 C 23.199219 53.761719 24.636719 55.199219 26.398438 55.199219 C 28.164062 55.199219 29.601562 53.761719 29.601562 52 C 29.601562 51.207031 29.292969 50.492188 28.8125 49.9375 L 36.210938 40.800781 L 60.867188 40.800781 C 61.023438 42.832031 62.289062 44.460938 64 44.699219 L 64 59.300781 C 62.289062 59.539062 61.023438 61.167969 60.867188 63.199219 L 19.132812 63.199219 C 18.976562 61.167969 17.710938 59.539062 16 59.300781 L 16 44.699219 C 17.710938 44.460938 18.976562 42.832031 19.132812 40.800781 L 22.800781 40.800781 C 22.945312 40.800781 23.078125 40.726562 23.152344 40.601562 C 23.222656 40.476562 23.222656 40.324219 23.152344 40.199219 C 23.078125 40.074219 22.945312 39.996094 22.800781 40 L 18.800781 40 C 18.578125 40 18.398438 40.179688 18.398438 40.398438 C 18.398438 42.4375 17.097656 44 15.601562 44 C 15.378906 44 15.199219 44.179688 15.199219 44.398438 L 15.199219 59.601562 C 15.199219 59.820312 15.378906 60 15.601562 60 C 17.097656 60 18.398438 61.5625 18.398438 63.601562 C 18.398438 63.820312 18.578125 64 18.800781 64 L 61.199219 64 C 61.421875 64 61.601562 63.820312 61.601562 63.601562 C 61.601562 61.5625 62.902344 60 64.398438 60 C 64.621094 60 64.800781 59.820312 64.800781 59.601562 L 64.800781 44.398438 C 64.800781 44.179688 64.621094 44 64.398438 44 C 62.902344 44 61.601562 42.4375 61.601562 40.398438 C 61.601562 40.179688 61.421875 40 61.199219 40 L 36.859375 40 L 39.449219 36.800781 L 65.601562 36.800781 C 66.921875 36.800781 68 37.875 68 39.199219 L 68 64.800781 C 68 66.125 66.921875 67.199219 65.601562 67.199219 L 14.398438 67.199219 C 13.078125 67.199219 12 66.125 12 64.800781 L 12 39.199219 C 12 37.875 13.078125 36.800781 14.398438 36.800781 Z M 40 44.800781 C 36.027344 44.800781 32.800781 48.027344 32.800781 52 C 32.800781 55.972656 36.027344 59.199219 40 59.199219 C 43.972656 59.199219 47.199219 55.972656 47.199219 52 C 47.199219 48.027344 43.972656 44.800781 40 44.800781 Z M 40 45.601562 C 43.539062 45.601562 46.398438 48.460938 46.398438 52 C 46.398438 55.539062 43.539062 58.398438 40 58.398438 C 36.460938 58.398438 33.601562 55.539062 33.601562 52 C 33.601562 48.460938 36.460938 45.601562 40 45.601562 Z M 53.601562 48.800781 C 52.566406 48.800781 51.742188 49.203125 51.203125 49.808594 C 50.660156 50.417969 50.398438 51.210938 50.398438 52 C 50.398438 52.789062 50.660156 53.582031 51.203125 54.191406 C 51.742188 54.796875 52.566406 55.199219 53.601562 55.199219 C 54.632812 55.199219 55.457031 54.796875 56 54.191406 C 56.539062 53.582031 56.800781 52.789062 56.800781 52 C 56.800781 51.210938 56.539062 50.417969 56 49.808594 C 55.457031 49.203125 54.632812 48.800781 53.601562 48.800781 Z M 53.601562 49.601562 C 54.433594 49.601562 55.007812 49.898438 55.402344 50.339844 C 55.792969 50.78125 56 51.390625 56 52 C 56 52.609375 55.792969 53.21875 55.402344 53.660156 C 55.007812 54.101562 54.433594 54.398438 53.601562 54.398438 C 52.765625 54.398438 52.191406 54.101562 51.796875 53.660156 C 51.40625 53.21875 51.199219 52.609375 51.199219 52 C 51.199219 51.390625 51.40625 50.78125 51.796875 50.339844 C 52.191406 49.898438 52.765625 49.601562 53.601562 49.601562 Z M 25.972656 49.664062 C 26.652344 50.628906 27.378906 51.132812 27.378906 51.132812 C 27.550781 51.246094 27.78125 51.210938 27.910156 51.050781 L 28.308594 50.5625 C 28.613281 50.964844 28.800781 51.457031 28.800781 52 C 28.800781 53.332031 27.730469 54.398438 26.398438 54.398438 C 25.070312 54.398438 24 53.332031 24 52 C 24 50.820312 24.851562 49.867188 25.972656 49.664062 Z M 25.972656 49.664062 "/>
</g>
</svg>
