<?xml version="1.0" encoding="UTF-8"?>
<svg xmlns="http://www.w3.org/2000/svg" xmlns:xlink="http://www.w3.org/1999/xlink" width="80pt" height="80pt" viewBox="0 0 80 80" version="1.1">
<g id="surface514651">
<path style=" stroke:none;fill-rule:nonzero;fill:rgb(77.254902%,60.784314%,15.294118%);fill-opacity:1;" d="M 56.898438 4.351562 C 59.929688 5.710938 62.429688 7.363281 64.25 9.300781 C 65.957031 11.113281 67.019531 13.257812 67.148438 15.550781 C 67.167969 15.582031 67.1875 15.617188 67.199219 15.648438 C 67.199219 15.667969 67.199219 15.679688 67.199219 15.699219 C 67.199219 15.75 67.199219 15.800781 67.199219 15.851562 C 67.199219 15.898438 67.199219 30.351562 67.199219 30.398438 C 67.207031 30.976562 66.90625 31.511719 66.40625 31.804688 C 65.90625 32.09375 65.292969 32.09375 64.792969 31.804688 C 64.292969 31.511719 63.992188 30.976562 64 30.398438 L 64 22.949219 C 62.207031 24.78125 59.804688 26.34375 56.898438 27.648438 C 50.832031 30.382812 42.632812 32 33.601562 32 C 24.570312 32 16.367188 30.382812 10.300781 27.648438 C 7.394531 26.34375 4.992188 24.78125 3.199219 22.949219 L 3.199219 31.699219 C 3.210938 31.800781 3.210938 31.898438 3.199219 32 C 3.199219 33.507812 3.882812 34.988281 5.300781 36.5 C 6.71875 38.011719 8.894531 39.460938 11.648438 40.699219 C 17.164062 43.179688 24.957031 44.800781 33.601562 44.800781 C 38.019531 44.800781 42.210938 44.386719 46 43.648438 C 46.867188 43.480469 47.707031 44.054688 47.875 44.925781 C 48.042969 45.792969 47.46875 46.632812 46.601562 46.800781 C 42.601562 47.582031 38.210938 48 33.601562 48 C 24.570312 48 16.367188 46.382812 10.300781 43.648438 C 7.394531 42.34375 4.992188 40.78125 3.199219 38.949219 L 3.199219 47.699219 C 3.210938 47.800781 3.210938 47.898438 3.199219 48 C 3.199219 49.507812 3.882812 50.988281 5.300781 52.5 C 6.71875 54.011719 8.894531 55.460938 11.648438 56.699219 C 17.164062 59.179688 24.957031 60.800781 33.601562 60.800781 C 34.175781 60.792969 34.710938 61.09375 35.007812 61.59375 C 35.292969 62.09375 35.292969 62.707031 35.007812 63.207031 C 34.710938 63.707031 34.175781 64.007812 33.601562 64 C 24.570312 64 16.367188 62.382812 10.300781 59.648438 C 7.394531 58.34375 4.992188 56.78125 3.199219 54.949219 L 3.199219 62.398438 C 3.199219 65.136719 5.542969 68.011719 10.148438 70.398438 C 14.757812 72.789062 21.382812 74.542969 28.898438 75.050781 C 29.78125 75.105469 30.457031 75.867188 30.398438 76.75 C 30.34375 77.632812 29.582031 78.304688 28.699219 78.25 C 20.824219 77.71875 13.84375 75.917969 8.699219 73.25 C 3.554688 70.582031 0 66.882812 0 62.398438 L 0 48 C -0.0117188 47.898438 -0.0117188 47.800781 0 47.699219 L 0 32 C -0.0117188 31.898438 -0.0117188 31.800781 0 31.699219 C 0 31.667969 0 15.929688 0 15.898438 C -0.0078125 15.820312 -0.0078125 15.730469 0 15.648438 C 0.105469 13.320312 1.21875 11.144531 2.949219 9.300781 C 4.769531 7.363281 7.269531 5.710938 10.300781 4.351562 C 16.367188 1.617188 24.570312 0 33.601562 0 C 42.632812 0 50.832031 1.617188 56.898438 4.351562 Z M 11.648438 7.300781 C 8.894531 8.539062 6.71875 9.988281 5.300781 11.5 C 3.925781 12.960938 3.242188 14.394531 3.199219 15.851562 C 3.199219 15.898438 3.199219 15.949219 3.199219 16 C 3.199219 17.507812 3.882812 18.988281 5.300781 20.5 C 6.71875 22.011719 8.894531 23.460938 11.648438 24.699219 C 17.164062 27.179688 24.957031 28.800781 33.601562 28.800781 C 42.242188 28.800781 50.039062 27.179688 55.550781 24.699219 C 58.304688 23.460938 60.480469 22.011719 61.898438 20.5 C 63.320312 18.988281 64 17.507812 64 16 C 64 14.492188 63.320312 13.011719 61.898438 11.5 C 60.480469 9.988281 58.304688 8.539062 55.550781 7.300781 C 50.039062 4.820312 42.242188 3.199219 33.601562 3.199219 C 24.957031 3.199219 17.164062 4.820312 11.648438 7.300781 Z M 80 49.601562 C 80 50.726562 79.871094 51.820312 79.625 52.875 C 78.800781 51.722656 77.851562 50.664062 76.800781 49.71875 C 76.800781 49.679688 76.800781 49.640625 76.800781 49.601562 C 76.800781 43.394531 71.800781 38.398438 65.601562 38.398438 C 60.207031 38.398438 55.71875 42.179688 54.644531 47.25 C 53.40625 47.945312 52.253906 48.777344 51.203125 49.71875 C 51.199219 49.679688 51.199219 49.640625 51.199219 49.601562 C 51.199219 41.667969 57.667969 35.199219 65.601562 35.199219 C 73.53125 35.199219 80 41.667969 80 49.601562 Z M 51.199219 78.398438 L 47.101562 78.398438 L 45.949219 79.550781 C 45.644531 79.851562 45.226562 80.011719 44.800781 80 L 36.800781 80 C 35.917969 80 35.199219 79.28125 35.199219 78.398438 L 35.199219 70.398438 C 35.207031 69.988281 35.363281 69.59375 35.648438 69.300781 L 45.300781 59.648438 C 44.972656 61.046875 44.800781 62.503906 44.800781 64 C 44.800781 64.222656 44.804688 64.445312 44.8125 64.667969 L 38.398438 71.101562 L 38.398438 76.800781 L 44.101562 76.800781 L 45.25 75.648438 C 45.554688 75.351562 45.976562 75.1875 46.398438 75.199219 L 48.429688 75.199219 C 49.273438 76.371094 50.25 77.441406 51.328125 78.394531 C 51.285156 78.398438 51.242188 78.398438 51.199219 78.398438 Z M 73.601562 46.398438 C 73.601562 46.71875 73.554688 47.023438 73.46875 47.3125 C 71.632812 46.265625 69.609375 45.511719 67.46875 45.117188 C 67.960938 43.988281 69.089844 43.199219 70.398438 43.199219 C 72.167969 43.199219 73.601562 44.632812 73.601562 46.398438 Z M 45.800781 72.101562 C 45.414062 72.574219 44.792969 72.792969 44.195312 72.65625 C 43.601562 72.519531 43.132812 72.050781 42.992188 71.457031 C 42.855469 70.855469 43.074219 70.238281 43.550781 69.851562 L 45.253906 68.140625 C 45.515625 69.320312 45.886719 70.460938 46.355469 71.546875 Z M 45.800781 72.101562 "/>
<path style=" stroke:none;fill-rule:nonzero;fill:rgb(80%,80%,80%);fill-opacity:1;" d="M 73.441406 64 C 73.441406 64.960938 72.800781 65.601562 71.839844 65.601562 L 65.601562 65.601562 L 65.601562 71.839844 C 65.601562 72.800781 64.960938 73.441406 64 73.441406 C 63.039062 73.441406 62.398438 72.800781 62.398438 71.839844 L 62.398438 65.601562 L 56.160156 65.601562 C 55.199219 65.601562 54.558594 64.960938 54.558594 64 C 54.558594 63.039062 55.199219 62.398438 56.160156 62.398438 L 62.398438 62.398438 L 62.398438 56.160156 C 62.398438 55.199219 63.039062 54.558594 64 54.558594 C 64.960938 54.558594 65.601562 55.199219 65.601562 56.160156 L 65.601562 62.398438 L 71.839844 62.398438 C 72.800781 62.398438 73.441406 63.039062 73.441406 64 Z M 80 64 C 80 72.800781 72.800781 80 64 80 C 55.199219 80 48 72.800781 48 64 C 48 55.199219 55.199219 48 64 48 C 72.800781 48 80 55.199219 80 64 Z M 76.800781 64 C 76.800781 56.960938 71.039062 51.199219 64 51.199219 C 56.960938 51.199219 51.199219 56.960938 51.199219 64 C 51.199219 71.039062 56.960938 76.800781 64 76.800781 C 71.039062 76.800781 76.800781 71.039062 76.800781 64 Z M 76.800781 64 "/>
</g>
</svg>
