<?xml version="1.0" encoding="UTF-8"?>
<svg xmlns="http://www.w3.org/2000/svg" xmlns:xlink="http://www.w3.org/1999/xlink" width="80pt" height="80pt" viewBox="0 0 80 80" version="1.1">
<g id="surface514582">
<path style=" stroke:none;fill-rule:nonzero;fill:rgb(77.254902%,60.784314%,15.294118%);fill-opacity:1;" d="M 18.75 5 C 16.683594 5 15 6.683594 15 8.75 L 15 55 L 3.75 55 C 1.683594 55 0 56.683594 0 58.75 L 0 63.75 C 0 69.953125 5.046875 75 11.25 75 L 66.25 75 C 72.453125 75 77.5 69.953125 77.5 63.75 L 77.5 8.75 C 77.5 6.683594 75.816406 5 73.75 5 Z M 18.75 7.5 L 73.75 7.5 C 74.4375 7.5 75 8.0625 75 8.75 L 75 63.75 C 75 68.574219 71.074219 72.5 66.25 72.5 C 61.425781 72.5 57.5 68.574219 57.5 63.75 L 57.5 58.75 C 57.5 56.683594 55.816406 55 53.75 55 L 17.5 55 L 17.5 8.75 C 17.5 8.0625 18.0625 7.5 18.75 7.5 Z M 21.25 12.5 C 20.5625 12.5 20 13.0625 20 13.75 L 20 16.25 C 20 16.9375 20.5625 17.5 21.25 17.5 C 21.9375 17.5 22.5 16.9375 22.5 16.25 L 22.5 13.75 C 22.5 13.0625 21.9375 12.5 21.25 12.5 Z M 27.5 12.5 C 26.8125 12.5 26.25 13.0625 26.25 13.75 L 26.25 16.25 C 26.25 16.9375 26.8125 17.5 27.5 17.5 C 28.1875 17.5 28.75 16.9375 28.75 16.25 L 28.75 13.75 C 28.75 13.0625 28.1875 12.5 27.5 12.5 Z M 33.75 12.5 C 33.0625 12.5 32.5 13.0625 32.5 13.75 L 32.5 16.25 C 32.5 16.9375 33.0625 17.5 33.75 17.5 C 34.4375 17.5 35 16.9375 35 16.25 L 35 13.75 C 35 13.0625 34.4375 12.5 33.75 12.5 Z M 40 12.5 C 39.3125 12.5 38.75 13.0625 38.75 13.75 L 38.75 16.25 C 38.75 16.9375 39.3125 17.5 40 17.5 C 40.6875 17.5 41.25 16.9375 41.25 16.25 L 41.25 13.75 C 41.25 13.0625 40.6875 12.5 40 12.5 Z M 46.25 12.5 C 45.5625 12.5 45 13.0625 45 13.75 L 45 16.25 C 45 16.9375 45.5625 17.5 46.25 17.5 C 46.9375 17.5 47.5 16.9375 47.5 16.25 L 47.5 13.75 C 47.5 13.0625 46.9375 12.5 46.25 12.5 Z M 52.5 12.5 C 51.8125 12.5 51.25 13.0625 51.25 13.75 L 51.25 16.25 C 51.25 16.9375 51.8125 17.5 52.5 17.5 C 53.1875 17.5 53.75 16.9375 53.75 16.25 L 53.75 13.75 C 53.75 13.0625 53.1875 12.5 52.5 12.5 Z M 58.75 12.5 C 58.0625 12.5 57.5 13.0625 57.5 13.75 L 57.5 16.25 C 57.5 16.9375 58.0625 17.5 58.75 17.5 C 59.4375 17.5 60 16.9375 60 16.25 L 60 13.75 C 60 13.0625 59.4375 12.5 58.75 12.5 Z M 65 12.5 C 64.3125 12.5 63.75 13.0625 63.75 13.75 L 63.75 16.25 C 63.75 16.9375 64.3125 17.5 65 17.5 C 65.6875 17.5 66.25 16.9375 66.25 16.25 L 66.25 13.75 C 66.25 13.0625 65.6875 12.5 65 12.5 Z M 71.25 12.5 C 70.5625 12.5 70 13.0625 70 13.75 L 70 16.25 C 70 16.9375 70.5625 17.5 71.25 17.5 C 71.9375 17.5 72.5 16.9375 72.5 16.25 L 72.5 13.75 C 72.5 13.0625 71.9375 12.5 71.25 12.5 Z M 3.75 57.5 L 53.75 57.5 C 54.4375 57.5 55 58.0625 55 58.75 L 55 63.75 C 55 67.28125 56.640625 70.433594 59.195312 72.5 L 11.25 72.5 C 6.425781 72.5 2.5 68.574219 2.5 63.75 L 2.5 62.5 L 41.25 62.5 C 41.9375 62.5 42.5 61.9375 42.5 61.25 C 42.5 60.5625 41.9375 60 41.25 60 L 2.5 60 L 2.5 58.75 C 2.5 58.0625 3.0625 57.5 3.75 57.5 Z M 46.25 60 C 45.5625 60 45 60.5625 45 61.25 C 45 61.9375 45.5625 62.5 46.25 62.5 L 51.25 62.5 C 51.9375 62.5 52.5 61.9375 52.5 61.25 C 52.5 60.5625 51.9375 60 51.25 60 Z M 46.25 60 "/>
</g>
</svg>
