<?xml version="1.0" encoding="UTF-8"?>
<svg xmlns="http://www.w3.org/2000/svg" xmlns:xlink="http://www.w3.org/1999/xlink" width="80pt" height="80pt" viewBox="0 0 80 80" version="1.1">
<g id="surface514365">
<path style=" stroke:none;fill-rule:nonzero;fill:rgb(77.254902%,60.784314%,15.294118%);fill-opacity:1;" d="M 38.75 8.242188 C 37.90625 8.242188 37.0625 8.527344 36.367188 9.089844 L 3.867188 35.785156 C 2.996094 36.5 2.5 37.554688 2.5 38.679688 L 2.5 42.359375 C 2.5 43.328125 3.050781 44.195312 3.9375 44.613281 C 4.277344 44.78125 4.644531 44.859375 5.011719 44.859375 C 5.570312 44.859375 6.128906 44.664062 6.585938 44.285156 L 7.5 43.535156 L 7.5 70 L 3.75 70 C 3.058594 70 2.5 70.554688 2.5 71.25 C 2.5 71.941406 3.058594 72.5 3.75 72.5 L 73.75 72.5 C 74.445312 72.5 75 71.941406 75 71.25 C 75 70.554688 74.445312 70 73.75 70 L 70 70 L 70 43.535156 L 70.914062 44.285156 C 71.664062 44.90625 72.679688 45.035156 73.570312 44.613281 C 74.449219 44.199219 75 43.332031 75 42.359375 L 75 38.679688 C 75 37.554688 74.503906 36.5 73.632812 35.785156 L 41.132812 9.089844 C 40.441406 8.527344 39.59375 8.242188 38.75 8.242188 Z M 38.75 10.738281 C 39.035156 10.738281 39.3125 10.832031 39.546875 11.019531 L 72.046875 37.71875 C 72.335938 37.953125 72.5 38.304688 72.5 38.683594 L 72.5 42.359375 L 40.335938 15.9375 C 39.417969 15.179688 38.085938 15.179688 37.164062 15.9375 L 5 42.359375 L 5 38.683594 C 5 38.304688 5.164062 37.953125 5.457031 37.714844 L 37.953125 11.019531 C 38.1875 10.835938 38.464844 10.738281 38.75 10.738281 Z M 38.75 17.871094 L 50.066406 27.164062 C 50.039062 27.277344 50 27.382812 50 27.5 L 50 28.75 C 50 29.441406 50.558594 30 51.25 30 C 51.816406 30 52.277344 29.617188 52.425781 29.101562 L 56.5625 32.5 L 20.9375 32.5 L 25.074219 29.101562 C 25.226562 29.617188 25.683594 30 26.25 30 C 26.945312 30 27.5 29.441406 27.5 28.75 L 27.5 27.5 C 27.5 27.382812 27.460938 27.273438 27.433594 27.164062 Z M 32.5 25 C 31.808594 25 31.25 25.558594 31.25 26.25 L 31.25 28.75 C 31.25 29.441406 31.808594 30 32.5 30 C 33.191406 30 33.75 29.441406 33.75 28.75 L 33.75 26.25 C 33.75 25.558594 33.191406 25 32.5 25 Z M 38.75 25 C 38.058594 25 37.5 25.558594 37.5 26.25 L 37.5 28.75 C 37.5 29.441406 38.058594 30 38.75 30 C 39.441406 30 40 29.441406 40 28.75 L 40 26.25 C 40 25.558594 39.441406 25 38.75 25 Z M 45 25 C 44.308594 25 43.75 25.558594 43.75 26.25 L 43.75 28.75 C 43.75 29.441406 44.308594 30 45 30 C 45.691406 30 46.25 29.441406 46.25 28.75 L 46.25 26.25 C 46.25 25.558594 45.691406 25 45 25 Z M 17.890625 35 L 25 35 L 25 46.25 C 25 46.941406 25.558594 47.5 26.25 47.5 C 26.941406 47.5 27.5 46.941406 27.5 46.25 L 27.5 35 L 52.5 35 L 52.5 50 L 10 50 L 10 41.484375 Z M 55 35 L 59.609375 35 L 67.5 41.484375 L 67.5 50 L 55 50 Z M 10 52.5 L 42.5 52.5 L 42.5 70 L 10 70 Z M 45 52.5 L 67.5 52.5 L 67.5 70 L 60 70 L 60 56.25 C 60 55.558594 59.441406 55 58.75 55 C 58.058594 55 57.5 55.558594 57.5 56.25 L 57.5 70 L 45 70 Z M 13.75 62.5 C 13.058594 62.5 12.5 63.058594 12.5 63.75 L 12.5 66.25 C 12.5 66.941406 13.058594 67.5 13.75 67.5 C 14.441406 67.5 15 66.941406 15 66.25 L 15 63.75 C 15 63.058594 14.441406 62.5 13.75 62.5 Z M 20 62.5 C 19.308594 62.5 18.75 63.058594 18.75 63.75 L 18.75 66.25 C 18.75 66.941406 19.308594 67.5 20 67.5 C 20.691406 67.5 21.25 66.941406 21.25 66.25 L 21.25 63.75 C 21.25 63.058594 20.691406 62.5 20 62.5 Z M 26.25 62.5 C 25.558594 62.5 25 63.058594 25 63.75 L 25 66.25 C 25 66.941406 25.558594 67.5 26.25 67.5 C 26.941406 67.5 27.5 66.941406 27.5 66.25 L 27.5 63.75 C 27.5 63.058594 26.941406 62.5 26.25 62.5 Z M 32.5 62.5 C 31.808594 62.5 31.25 63.058594 31.25 63.75 L 31.25 66.25 C 31.25 66.941406 31.808594 67.5 32.5 67.5 C 33.191406 67.5 33.75 66.941406 33.75 66.25 L 33.75 63.75 C 33.75 63.058594 33.191406 62.5 32.5 62.5 Z M 38.75 62.5 C 38.058594 62.5 37.5 63.058594 37.5 63.75 L 37.5 66.25 C 37.5 66.941406 38.058594 67.5 38.75 67.5 C 39.441406 67.5 40 66.941406 40 66.25 L 40 63.75 C 40 63.058594 39.441406 62.5 38.75 62.5 Z M 38.75 62.5 "/>
</g>
</svg>
