<?xml version="1.0" encoding="UTF-8"?>
<svg xmlns="http://www.w3.org/2000/svg" xmlns:xlink="http://www.w3.org/1999/xlink" width="80pt" height="80pt" viewBox="0 0 80 80" version="1.1">
<g id="surface514626">
<path style=" stroke:none;fill-rule:nonzero;fill:rgb(77.254902%,60.784314%,15.294118%);fill-opacity:1;" d="M 37.199219 10.398438 C 23.734375 10.398438 12.800781 21.335938 12.800781 34.800781 C 12.800781 36.066406 12.902344 37.308594 13.085938 38.523438 C 13.101562 38.609375 13.128906 38.691406 13.167969 38.765625 C 13.730469 42.195312 14.96875 45.402344 16.804688 48.191406 C 19.363281 52.074219 20.800781 56.570312 20.800781 61.199219 L 20.800781 69.601562 C 20.796875 69.886719 20.949219 70.15625 21.195312 70.300781 C 21.445312 70.449219 21.753906 70.449219 22.003906 70.300781 C 22.253906 70.15625 22.402344 69.886719 22.398438 69.601562 L 22.398438 61.199219 C 22.398438 56.238281 20.859375 51.4375 18.140625 47.3125 C 16.386719 44.644531 15.1875 41.578125 14.683594 38.28125 C 14.679688 38.246094 14.671875 38.210938 14.660156 38.175781 C 14.496094 37.070312 14.398438 35.945312 14.398438 34.800781 C 14.398438 22.199219 24.597656 12 37.199219 12 C 48.730469 12 58.242188 20.546875 59.777344 31.644531 C 59.84375 32.125 59.992188 32.601562 60.234375 33.039062 C 60.238281 33.046875 60.242188 33.054688 60.246094 33.0625 L 65.453125 41.824219 C 65.78125 42.371094 65.5625 43.050781 64.980469 43.3125 L 59.675781 45.667969 C 59.386719 45.796875 59.199219 46.082031 59.199219 46.398438 L 59.199219 52.800781 C 59.199219 56.785156 55.984375 60 52 60 L 40.398438 60 C 40.253906 59.996094 40.121094 60.074219 40.050781 60.199219 C 39.976562 60.324219 39.976562 60.476562 40.050781 60.601562 C 40.121094 60.726562 40.253906 60.800781 40.398438 60.800781 L 46.398438 60.800781 L 46.398438 69.601562 C 46.394531 69.886719 46.546875 70.15625 46.796875 70.300781 C 47.046875 70.449219 47.355469 70.449219 47.601562 70.300781 C 47.851562 70.15625 48.003906 69.886719 48 69.601562 L 48 61.601562 L 52 61.601562 C 56.851562 61.601562 60.800781 57.652344 60.800781 52.800781 L 60.800781 46.921875 L 65.628906 44.773438 C 67.066406 44.136719 67.628906 42.355469 66.828125 41.007812 L 61.636719 32.265625 C 61.496094 32.015625 61.40625 31.730469 61.363281 31.425781 C 59.726562 19.585938 49.582031 10.46875 37.3125 10.410156 C 37.277344 10.40625 37.238281 10.402344 37.199219 10.398438 Z M 37.199219 20.800781 C 31.683594 20.800781 27.199219 25.28125 27.199219 30.800781 C 27.199219 34.40625 29.136719 37.535156 32 39.292969 L 32 41.199219 C 32 42.214844 32.550781 43.101562 33.367188 43.589844 C 33.023438 43.886719 32.800781 44.316406 32.800781 44.800781 C 32.800781 45.277344 33.019531 45.707031 33.355469 46 C 33.019531 46.292969 32.800781 46.722656 32.800781 47.199219 C 32.800781 48.078125 33.519531 48.800781 34.398438 48.800781 L 34.453125 48.800781 C 34.558594 49.265625 34.863281 49.671875 35.277344 49.953125 C 35.789062 50.308594 36.460938 50.511719 37.199219 50.511719 C 37.9375 50.511719 38.609375 50.308594 39.125 49.953125 C 39.535156 49.671875 39.839844 49.265625 39.949219 48.800781 L 40 48.800781 C 40.878906 48.800781 41.601562 48.078125 41.601562 47.199219 C 41.601562 46.722656 41.382812 46.292969 41.042969 46 C 41.382812 45.707031 41.601562 45.277344 41.601562 44.800781 C 41.601562 44.316406 41.378906 43.886719 41.035156 43.589844 C 41.847656 43.101562 42.398438 42.214844 42.398438 41.199219 L 42.398438 39.292969 C 45.265625 37.535156 47.199219 34.40625 47.199219 30.800781 C 47.199219 25.28125 42.71875 20.800781 37.199219 20.800781 Z M 37.199219 21.601562 C 42.285156 21.601562 46.398438 25.714844 46.398438 30.800781 C 46.398438 34.207031 44.546875 37.160156 41.800781 38.75 C 41.675781 38.824219 41.601562 38.957031 41.601562 39.097656 L 41.601562 41.199219 C 41.601562 42.308594 40.710938 43.199219 39.601562 43.199219 L 34.800781 43.199219 C 33.691406 43.199219 32.800781 42.308594 32.800781 41.199219 L 32.800781 39.097656 C 32.800781 38.957031 32.722656 38.824219 32.601562 38.75 C 29.851562 37.160156 28 34.207031 28 30.800781 C 28 25.714844 32.113281 21.601562 37.199219 21.601562 Z M 37.199219 23.199219 C 37.054688 23.199219 36.921875 23.273438 36.847656 23.398438 C 36.777344 23.523438 36.777344 23.675781 36.847656 23.800781 C 36.921875 23.925781 37.054688 24.003906 37.199219 24 C 39.871094 24 42.171875 25.539062 43.285156 27.777344 C 43.34375 27.914062 43.472656 28.003906 43.621094 28.015625 C 43.765625 28.023438 43.90625 27.953125 43.984375 27.832031 C 44.066406 27.707031 44.070312 27.550781 44 27.421875 C 42.753906 24.921875 40.179688 23.199219 37.199219 23.199219 Z M 44.199219 28.796875 C 44.078125 28.800781 43.96875 28.859375 43.894531 28.953125 C 43.824219 29.050781 43.796875 29.171875 43.824219 29.289062 C 43.9375 29.777344 44 30.28125 44 30.800781 C 43.996094 30.945312 44.074219 31.078125 44.199219 31.152344 C 44.324219 31.222656 44.476562 31.222656 44.601562 31.152344 C 44.726562 31.078125 44.800781 30.945312 44.800781 30.800781 C 44.800781 30.21875 44.726562 29.652344 44.605469 29.109375 C 44.5625 28.921875 44.390625 28.789062 44.199219 28.796875 Z M 37.199219 32 C 36.761719 32 36.457031 32.328125 36.277344 32.6875 C 36.09375 33.050781 36 33.503906 36 34 C 36 34.605469 36.121094 35.261719 36.539062 35.800781 C 36.296875 35.890625 35.933594 35.925781 35.546875 35.953125 C 35.429688 35.378906 35.308594 34.835938 35.113281 34.449219 C 34.992188 34.214844 34.855469 34.015625 34.671875 33.859375 C 34.492188 33.707031 34.257812 33.609375 34.015625 33.605469 C 33.992188 33.601562 33.734375 33.570312 33.4375 33.703125 C 33.125 33.84375 32.800781 34.238281 32.800781 34.800781 C 32.800781 35.421875 33.199219 35.917969 33.664062 36.257812 C 34.03125 36.519531 34.457031 36.617188 34.875 36.683594 C 35.089844 38.074219 35.199219 39.917969 35.199219 42 C 35.199219 42.144531 35.273438 42.277344 35.398438 42.351562 C 35.523438 42.425781 35.675781 42.425781 35.800781 42.351562 C 35.925781 42.277344 36.003906 42.144531 36 42 C 36 39.960938 35.886719 38.179688 35.671875 36.730469 C 36.304688 36.679688 36.808594 36.53125 37.199219 36.300781 C 37.589844 36.53125 38.09375 36.679688 38.726562 36.730469 C 38.511719 38.179688 38.398438 39.960938 38.398438 42 C 38.398438 42.144531 38.472656 42.277344 38.597656 42.351562 C 38.722656 42.425781 38.878906 42.425781 39 42.351562 C 39.125 42.277344 39.203125 42.144531 39.199219 42 C 39.199219 39.917969 39.308594 38.074219 39.527344 36.683594 C 39.941406 36.617188 40.367188 36.519531 40.734375 36.257812 C 41.199219 35.917969 41.601562 35.421875 41.601562 34.800781 C 41.601562 34.238281 41.277344 33.84375 40.964844 33.703125 C 40.664062 33.570312 40.410156 33.601562 40.382812 33.605469 C 40.140625 33.609375 39.90625 33.707031 39.726562 33.859375 C 39.546875 34.015625 39.40625 34.214844 39.289062 34.449219 C 39.09375 34.835938 38.96875 35.378906 38.851562 35.953125 C 38.46875 35.925781 38.101562 35.890625 37.859375 35.800781 C 38.28125 35.261719 38.398438 34.605469 38.398438 34 C 38.398438 33.503906 38.304688 33.050781 38.125 32.6875 C 37.941406 32.328125 37.636719 32 37.199219 32 Z M 37.199219 32.800781 C 37.203125 32.800781 37.300781 32.832031 37.40625 33.046875 C 37.515625 33.261719 37.601562 33.613281 37.601562 34 C 37.601562 34.554688 37.507812 35.042969 37.203125 35.382812 L 37.199219 35.386719 L 37.199219 35.382812 C 36.894531 35.042969 36.800781 34.554688 36.800781 34 C 36.800781 33.613281 36.882812 33.261719 36.992188 33.046875 C 37.101562 32.832031 37.195312 32.800781 37.199219 32.800781 Z M 33.957031 34.398438 C 33.972656 34.398438 33.984375 34.398438 34 34.398438 C 34.050781 34.398438 34.085938 34.410156 34.15625 34.46875 C 34.222656 34.527344 34.3125 34.640625 34.398438 34.8125 C 34.507812 35.027344 34.59375 35.445312 34.683594 35.808594 C 34.488281 35.742188 34.308594 35.734375 34.132812 35.609375 C 33.800781 35.363281 33.601562 35.0625 33.601562 34.800781 C 33.601562 34.480469 33.675781 34.472656 33.765625 34.433594 C 33.851562 34.394531 33.957031 34.398438 33.957031 34.398438 Z M 40.441406 34.398438 C 40.441406 34.398438 40.546875 34.394531 40.636719 34.433594 C 40.722656 34.472656 40.800781 34.480469 40.800781 34.800781 C 40.800781 35.0625 40.601562 35.363281 40.265625 35.609375 C 40.09375 35.734375 39.910156 35.742188 39.714844 35.808594 C 39.808594 35.445312 39.890625 35.027344 40 34.8125 C 40.085938 34.640625 40.175781 34.527344 40.246094 34.46875 C 40.3125 34.410156 40.351562 34.398438 40.398438 34.398438 C 40.414062 34.398438 40.425781 34.398438 40.441406 34.398438 Z M 34.398438 44 L 40 44 C 40.445312 44 40.800781 44.355469 40.800781 44.800781 C 40.800781 45.246094 40.445312 45.601562 40 45.601562 L 34.398438 45.601562 C 33.953125 45.601562 33.601562 45.246094 33.601562 44.800781 C 33.601562 44.355469 33.953125 44 34.398438 44 Z M 34.398438 46.398438 L 40 46.398438 C 40.445312 46.398438 40.800781 46.753906 40.800781 47.199219 C 40.800781 47.644531 40.445312 48 40 48 L 34.398438 48 C 33.953125 48 33.601562 47.644531 33.601562 47.199219 C 33.601562 46.753906 33.953125 46.398438 34.398438 46.398438 Z M 35.289062 48.800781 L 39.113281 48.800781 C 39.027344 48.976562 38.886719 49.148438 38.671875 49.296875 C 38.3125 49.542969 37.789062 49.710938 37.199219 49.710938 C 36.613281 49.710938 36.085938 49.542969 35.730469 49.296875 C 35.511719 49.148438 35.371094 48.976562 35.289062 48.800781 Z M 37.199219 60 C 37.054688 59.996094 36.921875 60.074219 36.847656 60.199219 C 36.777344 60.324219 36.777344 60.476562 36.847656 60.601562 C 36.921875 60.726562 37.054688 60.800781 37.199219 60.800781 L 38.800781 60.800781 C 38.945312 60.800781 39.078125 60.726562 39.152344 60.601562 C 39.222656 60.476562 39.222656 60.324219 39.152344 60.199219 C 39.078125 60.074219 38.945312 59.996094 38.800781 60 Z M 37.199219 60 "/>
</g>
</svg>
