<?xml version="1.0" encoding="UTF-8"?>
<svg xmlns="http://www.w3.org/2000/svg" xmlns:xlink="http://www.w3.org/1999/xlink" width="80pt" height="80pt" viewBox="0 0 80 80" version="1.1">
<g id="surface514604">
<path style=" stroke:none;fill-rule:nonzero;fill:rgb(77.254902%,60.784314%,15.294118%);fill-opacity:1;" d="M 17.984375 9.988281 C 17.433594 9.996094 16.992188 10.449219 17 11 L 17 16.980469 L 11.113281 16.976562 C 8.855469 16.976562 7.015625 18.847656 7.011719 21.113281 L 6.984375 58.832031 C 6.984375 61.101562 8.816406 62.976562 11.074219 62.976562 L 17 62.980469 L 17 69 C 16.996094 69.359375 17.183594 69.695312 17.496094 69.878906 C 17.808594 70.058594 18.191406 70.058594 18.503906 69.878906 C 18.816406 69.695312 19.003906 69.359375 19 69 L 19 62.980469 L 28 62.988281 L 28 68 C 27.996094 68.359375 28.183594 68.695312 28.496094 68.878906 C 28.808594 69.058594 29.191406 69.058594 29.503906 68.878906 C 29.816406 68.695312 30.003906 68.359375 30 68 L 30 62.992188 L 39 62.996094 L 39 69 C 38.996094 69.359375 39.183594 69.695312 39.496094 69.878906 C 39.808594 70.058594 40.191406 70.058594 40.503906 69.878906 C 40.816406 69.695312 41.003906 69.359375 41 69 L 41 63 L 50 63.007812 L 50 68 C 49.996094 68.359375 50.183594 68.695312 50.496094 68.878906 C 50.808594 69.058594 51.191406 69.058594 51.503906 68.878906 C 51.816406 68.695312 52.003906 68.359375 52 68 L 52 63.011719 L 61 63.015625 L 61 68 C 60.996094 68.359375 61.183594 68.695312 61.496094 68.878906 C 61.808594 69.058594 62.191406 69.058594 62.503906 68.878906 C 62.816406 68.695312 63.003906 68.359375 63 68 L 63 63.019531 L 69.886719 63.023438 C 72.144531 63.023438 73.980469 61.152344 73.984375 58.886719 L 74.015625 21.167969 C 74.015625 18.898438 72.183594 17.027344 69.925781 17.023438 C 69.921875 17.023438 69.921875 17.023438 69.921875 17.023438 L 63 17.019531 C 63 17.011719 63 17.007812 63 17 L 63 11 C 63.003906 10.640625 62.816406 10.304688 62.503906 10.121094 C 62.191406 9.941406 61.808594 9.941406 61.496094 10.121094 C 61.183594 10.304688 60.996094 10.640625 61 11 L 61 17 C 61 17.003906 61 17.011719 61 17.015625 L 52 17.011719 C 52 17.007812 52 17.003906 52 17 L 52 11 C 52.003906 10.640625 51.816406 10.304688 51.503906 10.121094 C 51.191406 9.941406 50.808594 9.941406 50.496094 10.121094 C 50.183594 10.304688 49.996094 10.640625 50 11 L 50 17 C 50 17.003906 50 17.003906 50 17.007812 L 41 17 L 41 11 C 41.003906 10.640625 40.816406 10.304688 40.503906 10.121094 C 40.191406 9.941406 39.808594 9.941406 39.496094 10.121094 C 39.183594 10.304688 38.996094 10.640625 39 11 L 39 17 L 30 16.992188 L 30 11 C 30.003906 10.640625 29.816406 10.304688 29.503906 10.121094 C 29.191406 9.941406 28.808594 9.941406 28.496094 10.121094 C 28.183594 10.304688 27.996094 10.640625 28 11 L 28 16.992188 L 19 16.984375 L 19 11 C 19.003906 10.730469 18.898438 10.46875 18.707031 10.277344 C 18.515625 10.085938 18.253906 9.980469 17.984375 9.984375 Z M 11.113281 18.976562 L 17.75 18.984375 C 17.910156 19.023438 18.082031 19.023438 18.246094 18.984375 L 39.828125 19 C 39.9375 19.019531 40.050781 19.019531 40.160156 19 L 69.921875 19.023438 C 71.082031 19.027344 72.015625 19.964844 72.015625 21.167969 L 71.984375 58.882812 C 71.984375 60.085938 71.050781 61.023438 69.890625 61.023438 L 62.25 61.015625 C 62.085938 60.976562 61.921875 60.976562 61.761719 61.015625 L 51.210938 61.007812 C 51.074219 60.980469 50.933594 60.980469 50.796875 61.007812 L 40.164062 61 C 40.058594 60.984375 39.949219 60.984375 39.84375 61 L 29.089844 60.988281 L 29.085938 60.988281 C 29.027344 60.984375 28.964844 60.984375 28.910156 60.988281 L 11.078125 60.976562 C 9.917969 60.976562 8.984375 60.035156 8.984375 58.832031 L 9.015625 21.117188 C 9.015625 19.914062 9.949219 18.976562 11.113281 18.976562 Z M 17.5 24 C 15.566406 24 14 25.566406 14 27.5 C 14 29.433594 15.566406 31 17.5 31 C 19.433594 31 21 29.433594 21 27.5 C 21 25.566406 19.433594 24 17.5 24 Z M 12 57 L 11.199219 57.402344 L 11.039062 58.285156 L 11.652344 58.9375 L 12 59 L 12.800781 58.597656 L 12.960938 57.71875 L 12.347656 57.0625 Z M 16 57 L 15.199219 57.402344 L 15.039062 58.285156 L 15.652344 58.9375 L 16 59 L 16.800781 58.597656 L 16.960938 57.71875 L 16.347656 57.0625 Z M 20 57 L 19.199219 57.402344 L 19.039062 58.285156 L 19.652344 58.9375 L 20 59 L 20.800781 58.597656 L 20.960938 57.71875 L 20.347656 57.0625 Z M 24 57 L 23.199219 57.402344 L 23.039062 58.285156 L 23.652344 58.9375 L 24 59 L 24.800781 58.597656 L 24.960938 57.71875 L 24.347656 57.0625 Z M 28 57 L 27.199219 57.402344 L 27.039062 58.285156 L 27.652344 58.9375 L 28 59 L 28.800781 58.597656 L 28.960938 57.71875 L 28.347656 57.0625 Z M 32 57 L 31.199219 57.402344 L 31.039062 58.285156 L 31.652344 58.9375 L 32 59 L 32.800781 58.597656 L 32.960938 57.71875 L 32.347656 57.0625 Z M 36 57 L 35.199219 57.402344 L 35.039062 58.285156 L 35.652344 58.9375 L 36 59 L 36.800781 58.597656 L 36.960938 57.71875 L 36.347656 57.0625 Z M 40 57 L 39.199219 57.402344 L 39.039062 58.285156 L 39.652344 58.9375 L 40 59 L 40.800781 58.597656 L 40.960938 57.71875 L 40.347656 57.0625 Z M 44 57 L 43.199219 57.402344 L 43.039062 58.285156 L 43.652344 58.9375 L 44 59 L 44.800781 58.597656 L 44.960938 57.71875 L 44.347656 57.0625 Z M 48 57 L 47.199219 57.402344 L 47.039062 58.285156 L 47.652344 58.9375 L 48 59 L 48.800781 58.597656 L 48.960938 57.71875 L 48.347656 57.0625 Z M 52 57 L 51.199219 57.402344 L 51.039062 58.285156 L 51.652344 58.9375 L 52 59 L 52.800781 58.597656 L 52.960938 57.71875 L 52.347656 57.0625 Z M 56 57 L 55.199219 57.402344 L 55.039062 58.285156 L 55.652344 58.9375 L 56 59 L 56.800781 58.597656 L 56.960938 57.71875 L 56.347656 57.0625 Z M 60 57 L 59.199219 57.402344 L 59.039062 58.285156 L 59.652344 58.9375 L 60 59 L 60.800781 58.597656 L 60.960938 57.71875 L 60.347656 57.0625 Z M 64 57 L 63.199219 57.402344 L 63.039062 58.285156 L 63.652344 58.9375 L 64 59 L 64.800781 58.597656 L 64.960938 57.71875 L 64.347656 57.0625 Z M 68 57 L 67.199219 57.402344 L 67.039062 58.285156 L 67.652344 58.9375 L 68 59 L 68.800781 58.597656 L 68.960938 57.71875 L 68.347656 57.0625 Z M 68 57 "/>
</g>
</svg>
