<?xml version="1.0" encoding="utf-8"?>
<!-- Generator: Adobe Illustrator 24.2.1, SVG Export Plug-In . SVG Version: 6.00 Build 0)  -->
<svg version="1.1" id="Layer_1" xmlns="http://www.w3.org/2000/svg" xmlns:xlink="http://www.w3.org/1999/xlink" x="0px" y="0px"
	 viewBox="0 0 80 80" style="enable-background:new 0 0 80 80;" xml:space="preserve">
<style type="text/css">
	.st0{fill:#C59B27;}
	.st1{fill:none;stroke:#C59B27;stroke-width:0.4651;stroke-linecap:round;stroke-miterlimit:4.6512;}
</style>
<g id="surface960030">
	<path class="st0" d="M65,18c1.7,0,3,1.3,3,3v3h-6v-3C62,19.3,63.3,18,65,18 M65,16c-2.8,0-5,2.2-5,5v5h10v-5C70,18.2,67.8,16,65,16
		z"/>
	<path class="st0" d="M70.9,36.2l3.1,5.1v34.5H56V41.3l3.1-5.1H70.9 M72,34H58l-4,6.6V78h22V40.6L72,34z"/>
	<path class="st0" d="M65,24c2.8,0,5,2.2,5,5v5H60v-5C60,26.2,62.2,24,65,24 M65,22c-3.9,0-7,3.1-7,7v7h14v-7C72,25.1,68.9,22,65,22
		z"/>
	<path class="st1" d="M65,17v-6"/>
	<path class="st0" d="M76,66v10H54V66h6v4h10v-4H76 M78,64H68v4h-6v-4H52v14h26V64z"/>
	<path class="st1" d="M41,9V3"/>
	<path class="st0" d="M46,8v2H36V8H46 M48,6H34v6h14V6z"/>
	<path class="st0" d="M48.2,12l7.5,64H26.3l7.5-64H48.2 M50,10H32l-8,68h34L50,10z"/>
	<path class="st0" d="M47.8,12l-5.6,64h-2.3l-5.6-64H47.8 M50,10H32l6,68h6L50,10z"/>
	<path class="st0" d="M24,26v34H6V26H24 M26,24H4v38h22V24z"/>
	<path class="st0" d="M26,62v14H4V62H26 M28,60H2v18h26V60z"/>
	<path class="st0" d="M20,18v6H10v-6H20 M22,16H8v10h14V16z"/>
	<path class="st0" d="M18,10v6h-6v-6H18 M20,8H10v10h10V8z"/>
	<path class="st1" d="M15,9V3"/>
</g>
</svg>
